<svg width="240" height="240" viewBox="0 0 240 240" fill="none" xmlns="http://www.w3.org/2000/svg">
<g clip-path="url(#clip0_1594_5577)">
<path d="M53.39 213.45L140 109C142.367 106.139 145.638 104.171 149.274 103.42C152.91 102.669 156.694 103.181 160 104.87L189 119.63L158 35.4899C157.147 33.1688 155.65 31.1391 153.684 29.639C151.718 28.1389 149.365 27.2305 146.901 27.0206C144.438 26.8106 141.965 27.3077 139.774 28.4536C137.582 29.5995 135.763 31.3466 134.53 33.4899L56.34 169.23C53.1988 174.65 51.6917 180.863 52 187.12L53.39 213.45Z" fill="url(#paint0_linear_1594_5577)"/>
</g>
<defs>
<linearGradient id="paint0_linear_1594_5577" x1="-52.88" y1="120.23" x2="330.61" y2="120.23" gradientUnits="userSpaceOnUse">
<stop stop-color="#00B3DE"/>
<stop offset="1" stop-color="#A8D100"/>
</linearGradient>
<clipPath id="clip0_1594_5577">
<rect width="136.98" height="186.45" fill="white" transform="translate(52 27)"/>
</clipPath>
</defs>
</svg>
