<svg width="240" height="240" viewBox="0 0 240 240" fill="none" xmlns="http://www.w3.org/2000/svg">
<path d="M101.66 177L73.86 195L162.86 210.13C165.293 210.546 167.794 210.26 170.071 209.307C172.348 208.353 174.306 206.771 175.717 204.746C177.127 202.72 177.932 200.335 178.037 197.869C178.142 195.403 177.543 192.958 176.31 190.82L98 54.75C94.8504 49.2872 90.1811 44.8575 84.56 42L61 30L108.1 157.67C109.375 161.145 109.432 164.95 108.262 168.462C107.092 171.973 104.764 174.984 101.66 177Z" fill="url(#paint0_linear_1594_5597)"/>
<defs>
<linearGradient id="paint0_linear_1594_5597" x1="-180.86" y1="120.18" x2="202.63" y2="120.18" gradientUnits="userSpaceOnUse">
<stop stop-color="#00B3DE"/>
<stop offset="1" stop-color="#A8D100"/>
</linearGradient>
</defs>
</svg>
