<?xml version="1.0" standalone="no"?>
<!DOCTYPE svg PUBLIC "-//W3C//DTD SVG 20010904//EN"
 "http://www.w3.org/TR/2001/REC-SVG-20010904/DTD/svg10.dtd">
<svg version="1.0" xmlns="http://www.w3.org/2000/svg"
 width="800.000000pt" height="800.000000pt" viewBox="0 0 800.000000 800.000000"
 preserveAspectRatio="xMidYMid meet">
<metadata>
Created by potrace 1.14, written by Peter Selinger 2001-2017
</metadata>
<g transform="translate(0.000000,800.000000) scale(0.100000,-0.100000)"
fill="#000000" stroke="none">
<path d="M3852 6359 c-51 -25 -74 -47 -107 -104 -16 -28 -33 -51 -37 -53 -4
-2 -8 -12 -8 -23 0 -10 -4 -19 -9 -19 -5 0 -12 -9 -16 -19 -3 -11 -17 -36 -30
-55 -13 -20 -22 -36 -18 -36 3 0 -1 -7 -8 -16 -15 -18 -21 -28 -68 -116 -18
-35 -40 -70 -47 -79 -8 -8 -14 -18 -14 -21 0 -10 -83 -153 -93 -159 -5 -3 -7
-9 -5 -12 1 -4 -5 -16 -14 -27 -10 -11 -18 -25 -18 -31 0 -6 -7 -17 -15 -26
-8 -8 -13 -19 -10 -24 4 -5 2 -9 -4 -9 -5 0 -13 -9 -16 -20 -3 -11 -12 -26
-18 -32 -7 -7 -25 -38 -40 -68 -16 -30 -37 -68 -47 -85 -37 -59 -54 -90 -52
-97 1 -5 -3 -8 -9 -8 -5 0 -7 -4 -4 -10 3 -5 2 -10 -3 -10 -7 0 -18 -17 -71
-118 -8 -15 -17 -29 -21 -32 -3 -3 -19 -30 -34 -60 -16 -30 -31 -57 -35 -60
-3 -3 -15 -24 -26 -47 -11 -24 -23 -43 -27 -43 -5 0 -8 -4 -8 -10 0 -5 -15
-33 -32 -62 -37 -60 -58 -97 -85 -148 -10 -19 -20 -37 -23 -40 -3 -3 -11 -16
-18 -29 -36 -64 -51 -90 -76 -131 -15 -25 -32 -57 -39 -72 -6 -16 -15 -28 -19
-28 -4 0 -8 -5 -8 -10 0 -6 -15 -34 -33 -63 -18 -29 -41 -69 -52 -89 -11 -21
-23 -38 -28 -38 -4 0 -6 -4 -2 -9 3 -5 -1 -15 -8 -23 -7 -7 -19 -28 -26 -45
-7 -18 -17 -33 -20 -33 -6 0 -53 -100 -57 -122 -1 -5 -3 -10 -4 -13 -1 -3 -4
-9 -5 -15 -1 -5 -3 -11 -4 -12 -1 -2 -5 -23 -8 -48 -8 -69 -7 -119 11 -468 2
-34 5 -65 8 -68 3 -3 16 10 29 28 13 18 36 47 51 63 15 17 28 36 28 43 0 7 4
10 10 7 5 -3 10 -2 10 3 0 9 22 37 80 103 38 43 46 53 59 77 7 13 17 20 24 16
7 -4 9 -4 5 0 -6 8 13 36 44 64 9 9 15 19 12 24 -3 4 1 8 8 8 8 0 22 13 31 30
10 16 31 42 47 59 17 16 30 32 30 36 0 3 14 19 30 35 17 17 27 30 23 30 -4 0
2 8 13 18 10 10 33 36 49 57 17 21 38 47 48 57 9 10 17 23 17 29 0 5 5 7 10 4
6 -3 10 -2 10 4 0 5 10 21 23 35 12 14 33 40 47 57 14 18 34 43 45 55 11 13
31 37 45 54 42 53 74 91 98 116 12 13 22 27 22 31 0 5 9 14 20 21 11 7 20 17
20 22 0 5 15 25 33 44 17 19 46 51 62 72 17 20 47 58 69 83 21 25 45 55 55 66
67 83 107 132 116 142 5 6 28 33 50 59 22 27 48 56 58 66 9 10 17 21 17 24 0
14 102 83 134 91 43 10 131 9 161 -2 63 -23 135 -59 135 -67 0 -4 7 -8 16 -8
9 0 32 -9 50 -21 19 -11 34 -17 34 -12 0 4 5 1 10 -7 5 -8 13 -15 17 -15 4 -1
41 -18 80 -38 40 -21 76 -37 79 -36 4 0 10 -3 13 -8 9 -12 91 -53 91 -45 0 7
-62 174 -82 222 -20 46 -27 65 -38 103 -7 22 -18 51 -26 65 -8 15 -14 34 -14
43 0 9 -3 19 -7 23 -5 4 -8 11 -9 14 0 4 -6 20 -12 35 -7 16 -12 34 -12 42 0
8 -5 17 -10 20 -6 4 -8 11 -5 16 4 5 1 9 -6 9 -7 0 -10 3 -6 6 3 4 0 19 -8 34
-8 15 -11 30 -8 34 4 3 1 6 -6 6 -6 0 -11 6 -10 13 2 6 -5 30 -15 52 -9 22
-18 48 -19 58 -1 9 -5 17 -10 17 -4 0 -5 5 -2 10 3 6 1 10 -6 10 -7 0 -10 3
-6 6 3 3 -3 29 -15 58 -11 28 -21 56 -22 63 -1 7 -5 16 -9 19 -4 4 -7 16 -7
26 0 10 -5 18 -12 18 -6 0 -9 3 -5 6 5 6 -34 123 -53 156 -6 10 -10 27 -10 38
0 11 -4 20 -8 20 -4 0 -8 8 -9 18 -6 66 -112 260 -135 246 -4 -3 -8 -1 -8 4 0
14 -76 33 -121 30 -22 -1 -57 -10 -77 -19z"/>
<path d="M4685 4788 c4 -18 12 -36 17 -39 5 -3 9 -9 8 -13 -2 -6 7 -38 14 -56
18 -40 26 -64 26 -75 0 -8 5 -17 10 -20 6 -3 10 -12 10 -20 0 -8 5 -26 12 -42
6 -15 12 -30 13 -33 1 -3 7 -18 14 -35 7 -16 13 -38 14 -47 1 -10 6 -18 11
-18 5 0 7 -3 3 -6 -3 -4 3 -25 15 -48 11 -22 20 -42 19 -43 -1 -3 -1 -6 4 -20
2 -8 18 -50 32 -83 3 -8 7 -19 8 -25 3 -13 73 -204 85 -230 5 -11 23 -60 40
-110 31 -88 45 -124 59 -155 4 -8 18 -49 32 -90 13 -41 26 -77 29 -80 3 -3 11
-23 18 -45 22 -65 53 -149 63 -167 5 -10 9 -27 9 -37 0 -11 5 -23 10 -26 6 -3
10 -15 10 -26 0 -10 4 -19 8 -19 4 0 8 -8 9 -17 1 -10 7 -31 14 -48 7 -16 13
-32 14 -35 0 -3 7 -16 14 -28 7 -13 10 -26 7 -29 -3 -3 4 -23 14 -44 11 -21
20 -45 20 -54 0 -8 5 -15 11 -15 6 0 9 -6 6 -12 -2 -7 0 -22 6 -33 6 -11 27
-68 48 -128 30 -87 36 -119 34 -170 -4 -102 -49 -169 -155 -237 -30 -19 -57
-37 -60 -40 -3 -3 -27 -19 -54 -35 -67 -41 -70 -43 -166 -106 -47 -30 -100
-64 -118 -76 l-33 -20 78 -12 c43 -7 98 -17 123 -21 51 -11 104 -20 140 -25
14 -1 25 -4 25 -5 0 -1 17 -3 38 -6 21 -2 56 -8 77 -14 21 -6 42 -9 47 -8 4 1
22 -1 38 -5 17 -4 46 -9 65 -12 19 -2 47 -6 62 -10 16 -3 40 -7 55 -9 16 -3
39 -7 53 -9 23 -5 75 -13 145 -23 17 -3 50 -9 75 -14 25 -5 63 -12 84 -15 21
-3 48 -7 60 -10 12 -2 37 -7 56 -10 36 -5 68 -11 118 -20 110 -23 233 -28 268
-13 119 51 168 183 111 297 -38 75 -80 145 -89 149 -4 2 -8 12 -8 23 0 10 -4
19 -9 19 -5 0 -11 8 -15 18 -5 16 -33 65 -78 137 -10 17 -24 42 -30 58 -7 15
-15 27 -19 27 -4 0 -12 15 -20 33 -7 17 -16 34 -19 37 -8 6 -35 56 -51 93 -6
15 -15 27 -21 27 -5 0 -6 5 -3 10 3 6 3 10 -2 10 -4 0 -14 15 -22 33 -8 17
-18 34 -21 37 -7 5 -35 54 -74 129 -10 20 -21 38 -25 41 -4 3 -18 26 -31 53
-14 26 -29 47 -33 47 -5 0 -5 5 -2 10 3 6 1 10 -4 10 -6 0 -10 3 -9 8 1 4 -14
35 -35 70 -20 35 -37 67 -37 73 0 5 -4 9 -10 9 -5 0 -10 5 -10 11 0 6 -9 24
-21 40 -11 16 -17 29 -13 29 4 0 0 8 -8 18 -9 9 -33 49 -53 87 -21 39 -41 72
-44 75 -3 3 -14 21 -25 40 -25 47 -63 113 -97 172 -16 27 -29 51 -29 54 0 3
-16 30 -35 60 -19 30 -35 59 -35 64 0 6 -3 10 -8 10 -4 0 -13 15 -21 33 -8 17
-28 55 -46 82 -17 28 -45 76 -61 107 -16 32 -32 58 -36 58 -3 0 -12 16 -18 35
-6 19 -16 35 -21 35 -5 0 -9 5 -9 10 0 6 -18 40 -40 76 -22 36 -40 68 -40 70
0 19 -141 154 -160 154 -5 0 -10 5 -10 10 0 6 -9 10 -19 10 -11 0 -21 4 -23 8
-1 4 -61 37 -133 73 -71 35 -132 66 -135 69 -3 3 -29 18 -58 33 l-54 28 7 -33z"/>
<path d="M2380 3242 c0 -4 -12 -21 -27 -39 -16 -17 -35 -39 -43 -50 -65 -82
-97 -120 -112 -134 -10 -9 -18 -21 -18 -27 0 -6 -4 -12 -8 -14 -4 -1 -53 -57
-107 -123 -108 -130 -124 -149 -152 -181 -10 -12 -43 -52 -73 -90 -30 -37 -65
-78 -77 -91 -12 -13 -20 -23 -17 -23 3 0 -13 -20 -36 -44 -23 -24 -51 -57 -63
-73 -12 -17 -29 -37 -37 -45 -8 -9 -28 -33 -45 -54 -16 -21 -40 -48 -52 -61
-12 -13 -20 -23 -17 -23 3 0 -8 -14 -25 -31 -17 -17 -31 -37 -31 -45 0 -9 -3
-13 -7 -11 -5 3 -14 -1 -21 -9 -7 -8 -10 -14 -8 -14 3 0 -2 -15 -12 -32 -26
-48 -27 -109 -2 -165 23 -53 56 -93 77 -93 8 0 11 -4 8 -10 -3 -5 -3 -10 2
-11 11 -1 31 -6 68 -16 17 -5 644 -8 1395 -8 1263 2 1368 3 1410 19 25 9 55
19 68 22 23 5 114 56 144 82 10 8 18 12 18 9 0 -3 12 5 26 18 14 13 39 30 55
37 16 7 29 16 29 19 0 3 18 14 40 25 22 10 40 22 40 25 0 4 14 12 30 19 17 7
30 16 30 20 0 4 10 11 23 14 32 9 6 22 -63 31 -30 4 -64 9 -75 12 -36 8 -59
11 -105 17 -25 3 -58 9 -75 12 -16 3 -39 7 -50 9 -11 2 -20 4 -20 5 0 1 -15 3
-34 5 -19 2 -46 7 -60 10 -14 4 -42 9 -61 11 -19 3 -48 7 -65 10 -16 3 -41 7
-55 9 -14 2 -25 4 -25 5 0 1 -13 3 -30 5 -16 1 -30 3 -30 5 0 1 -9 3 -20 4
-11 2 -40 7 -65 11 -25 5 -52 9 -60 10 -8 1 -42 7 -75 13 -33 6 -80 14 -105
17 -24 4 -47 8 -50 10 -3 1 -25 6 -50 9 -25 3 -55 8 -66 10 -12 2 -39 7 -60
10 -22 4 -46 8 -54 11 -8 2 -31 7 -50 9 -19 3 -51 8 -70 11 -19 4 -46 8 -60
10 -14 2 -25 4 -25 5 0 2 -24 7 -80 14 -27 3 -67 10 -87 15 -20 5 -39 6 -42 4
-2 -3 -11 -1 -18 3 -7 5 -24 9 -38 10 -14 1 -53 7 -88 13 -35 7 -75 14 -90 16
-15 3 -36 6 -47 9 -15 3 -92 15 -135 21 -3 0 -11 4 -18 9 -7 4 -16 5 -19 2 -3
-3 -12 -1 -20 5 -7 6 -13 9 -13 5 0 -12 -63 26 -102 62 -71 66 -89 133 -92
349 0 51 -3 93 -6 93 -3 0 -6 33 -6 73 -4 194 -6 227 -10 227 -2 0 -4 -3 -4
-8z"/>
</g>
</svg>
