<svg width="64" height="64" viewBox="0 0 64 64" fill="none" xmlns="http://www.w3.org/2000/svg">
<g id="office-svgrepo-com">
<path id="Vector" fill-rule="evenodd" clip-rule="evenodd" d="M13.334 10.6668C11.8612 10.6668 10.6673 11.8607 10.6673 13.3335V50.6668C10.6673 52.1396 11.8612 53.3335 13.334 53.3335H32.0006H34.6673C36.1401 53.3335 37.334 52.1396 37.334 50.6668V13.3335C37.334 11.8607 36.1401 10.6668 34.6673 10.6668H13.334ZM13.334 58.6668H32.0006H34.6673H50.6673C55.0857 58.6668 58.6673 55.0852 58.6673 50.6668V24.0002C58.6673 19.5819 55.0857 16.0002 50.6673 16.0002H42.6673V13.3335C42.6673 8.91523 39.0857 5.3335 34.6673 5.3335H13.334C8.91572 5.3335 5.33398 8.91523 5.33398 13.3335V50.6668C5.33398 55.0852 8.91572 58.6668 13.334 58.6668ZM50.6673 53.3335H42.2121C42.5068 52.4994 42.6673 51.6018 42.6673 50.6668V21.3335H50.6673C52.1401 21.3335 53.334 22.5274 53.334 24.0002V50.6668C53.334 52.1396 52.1401 53.3335 50.6673 53.3335ZM18.6673 37.3335H13.334V42.6668H18.6673V37.3335ZM21.334 37.3335H26.6673V42.6668H21.334V37.3335ZM34.6673 37.3335H29.334V42.6668H34.6673V37.3335ZM45.334 37.3335H50.6673V42.6668H45.334V37.3335ZM50.6673 26.6668H45.334V32.0002H50.6673V26.6668ZM13.334 26.6668H18.6673V32.0002H13.334V26.6668ZM26.6673 26.6668H21.334V32.0002H26.6673V26.6668ZM29.334 26.6668H34.6673V32.0002H29.334V26.6668ZM18.6673 16.0002H13.334V21.3335H18.6673V16.0002ZM21.334 16.0002H26.6673V21.3335H21.334V16.0002ZM34.6673 16.0002H29.334V21.3335H34.6673V16.0002Z" fill="white"/>
</g>
</svg>
