<svg width="249" height="62" viewBox="0 0 249 62" fill="none" xmlns="http://www.w3.org/2000/svg">
<g id="Commercial Prime Logo 1" clip-path="url(#clip0_6644_6115)">
<g id="Layer_1-2">
<g id="Group">
<path id="Vector" d="M43.0229 7.08992L40.0229 6.17992L35.3029 32.2099L40.7729 33.0599L44.4129 13.8599C56.5129 18.2599 62.7929 25.3299 61.8929 30.0599C61.3329 32.9999 58.0429 35.4899 52.8529 36.8999C49.0429 37.9299 44.5829 38.3099 39.8229 38.0199L36.7529 37.7199L34.0929 37.3799C33.2229 37.2399 32.3429 37.0699 31.4529 36.8899C14.9429 33.4599 4.70286 24.3799 5.83286 18.3899C7.12286 11.5799 21.1429 9.07992 33.4329 11.0399L34.2929 5.09992C16.4229 2.24992 2.08286 7.34992 0.202858 17.2099C-0.817142 22.5699 2.03286 28.2299 8.22286 33.1199C13.8229 37.5499 21.6829 40.9799 30.3329 42.7899C31.2129 42.9699 32.0929 43.1399 32.9729 43.2799L30.2329 57.7099H36.0829L38.6929 43.9699C44.3529 44.3799 49.7129 43.9699 54.2929 42.7199C61.8029 40.6799 66.5029 36.5999 67.5229 31.2299C69.2929 21.9299 59.2129 11.9999 43.0229 7.08992Z" fill="white"/>
<g id="Group_2">
<path id="Vector_2" d="M75.8027 17.64C75.8027 16.32 76.0027 15.08 76.3927 13.92C76.7827 12.76 77.3427 11.77 78.0727 10.92C78.8027 10.07 79.6927 9.40996 80.7427 8.92996C81.7927 8.44996 82.9627 8.20996 84.2727 8.20996C85.8827 8.20996 87.4127 8.51996 88.8527 9.12996L88.0027 12.52C87.5427 12.31 87.0227 12.14 86.4527 12.01C85.8727 11.87 85.2627 11.8 84.6027 11.8C83.0527 11.8 81.8727 12.31 81.0727 13.32C80.2627 14.34 79.8627 15.77 79.8627 17.62C79.8627 19.47 80.2427 20.81 81.0027 21.85C81.7627 22.89 83.0527 23.41 84.8627 23.41C85.5427 23.41 86.2027 23.34 86.8627 23.2C87.5127 23.06 88.0827 22.89 88.5627 22.69L89.1227 26.11C88.6827 26.34 88.0227 26.54 87.1427 26.73C86.2627 26.91 85.3527 27 84.4127 27C82.9527 27 81.6827 26.77 80.6027 26.3C79.5227 25.83 78.6327 25.18 77.9227 24.35C77.2127 23.52 76.6827 22.52 76.3327 21.37C75.9827 20.22 75.8127 18.97 75.8127 17.62L75.8027 17.64Z" fill="white"/>
<path id="Vector_3" d="M107.303 17.61C107.303 19.03 107.103 20.32 106.713 21.48C106.323 22.64 105.763 23.64 105.043 24.46C104.323 25.28 103.453 25.92 102.443 26.38C101.433 26.84 100.313 27.06 99.0928 27.06C97.8728 27.06 96.7628 26.83 95.7528 26.38C94.7528 25.92 93.8928 25.28 93.1728 24.46C92.4528 23.64 91.8928 22.64 91.4828 21.48C91.0828 20.31 90.8828 19.03 90.8828 17.61C90.8828 16.19 91.0828 14.91 91.4828 13.76C91.8828 12.61 92.4528 11.62 93.1828 10.8C93.9128 9.97998 94.7828 9.33998 95.7828 8.89998C96.7828 8.44998 97.8828 8.22998 99.0828 8.22998C100.283 8.22998 101.393 8.44998 102.403 8.89998C103.413 9.34998 104.283 9.97998 105.003 10.8C105.723 11.62 106.283 12.61 106.693 13.76C107.093 14.91 107.303 16.2 107.303 17.61ZM103.243 17.61C103.243 15.83 102.873 14.42 102.143 13.38C101.413 12.34 100.393 11.82 99.0828 11.82C97.7728 11.82 96.7528 12.34 96.0228 13.38C95.2928 14.42 94.9228 15.83 94.9228 17.61C94.9228 19.39 95.2828 20.84 96.0228 21.89C96.7528 22.94 97.7728 23.47 99.0828 23.47C100.393 23.47 101.413 22.95 102.143 21.89C102.873 20.84 103.243 19.41 103.243 17.61Z" fill="white"/>
<path id="Vector_4" d="M121.143 17.16C121.143 15.29 120.923 13.94 120.473 13.1C120.023 12.27 119.193 11.85 117.973 11.85C117.533 11.85 117.053 11.88 116.533 11.95C116.013 12.02 115.613 12.08 115.353 12.12V26.57H111.393V9.25004C112.153 9.02004 113.153 8.80004 114.383 8.60004C115.613 8.39004 116.923 8.29004 118.293 8.29004C119.473 8.29004 120.433 8.45004 121.193 8.77004C121.943 9.09004 122.573 9.51004 123.073 10.04C123.313 9.86004 123.613 9.66004 123.993 9.46004C124.363 9.25004 124.783 9.07004 125.233 8.89004C125.693 8.72004 126.173 8.58004 126.693 8.46004C127.213 8.34004 127.723 8.29004 128.243 8.29004C129.573 8.29004 130.673 8.49004 131.533 8.89004C132.393 9.29004 133.073 9.85004 133.563 10.57C134.053 11.29 134.393 12.16 134.573 13.17C134.763 14.19 134.853 15.3 134.853 16.51V26.58H130.893V17.16C130.893 15.29 130.673 13.94 130.243 13.1C129.803 12.27 128.963 11.85 127.723 11.85C127.093 11.85 126.493 11.96 125.923 12.18C125.353 12.4 124.933 12.61 124.643 12.81C124.813 13.38 124.933 13.99 125.003 14.63C125.073 15.27 125.103 15.95 125.103 16.68V26.58H121.143V17.16Z" fill="white"/>
<path id="Vector_5" d="M149.443 17.16C149.443 15.29 149.223 13.94 148.773 13.1C148.323 12.27 147.493 11.85 146.273 11.85C145.833 11.85 145.353 11.88 144.833 11.95C144.313 12.02 143.913 12.08 143.653 12.12V26.57H139.693V9.25004C140.453 9.02004 141.453 8.80004 142.683 8.60004C143.913 8.39004 145.223 8.29004 146.593 8.29004C147.773 8.29004 148.733 8.45004 149.493 8.77004C150.243 9.09004 150.873 9.51004 151.373 10.04C151.613 9.86004 151.913 9.66004 152.293 9.46004C152.663 9.25004 153.083 9.07004 153.533 8.89004C153.983 8.71004 154.473 8.58004 154.993 8.46004C155.503 8.35004 156.023 8.29004 156.543 8.29004C157.873 8.29004 158.973 8.49004 159.833 8.89004C160.693 9.29004 161.373 9.85004 161.863 10.57C162.353 11.29 162.693 12.16 162.873 13.17C163.053 14.19 163.153 15.3 163.153 16.51V26.58H159.193V17.16C159.193 15.29 158.973 13.94 158.543 13.1C158.103 12.27 157.263 11.85 156.023 11.85C155.393 11.85 154.793 11.96 154.223 12.18C153.653 12.4 153.233 12.61 152.943 12.81C153.113 13.38 153.233 13.99 153.303 14.63C153.373 15.27 153.403 15.95 153.403 16.68V26.58H149.443V17.16Z" fill="white"/>
<path id="Vector_6" d="M167.033 17.71C167.033 16.13 167.253 14.75 167.703 13.57C168.153 12.39 168.743 11.39 169.483 10.61C170.223 9.81998 171.073 9.22998 172.033 8.82998C172.993 8.42998 173.973 8.22998 174.973 8.22998C177.333 8.22998 179.163 8.99998 180.483 10.52C181.803 12.05 182.463 14.33 182.463 17.37C182.463 17.6 182.463 17.86 182.443 18.14C182.433 18.43 182.413 18.68 182.393 18.91H171.103C171.213 20.35 171.693 21.46 172.563 22.25C173.433 23.04 174.673 23.43 176.313 23.43C177.273 23.43 178.153 23.34 178.943 23.16C179.743 22.98 180.363 22.78 180.823 22.58L181.343 25.97C181.123 26.08 180.823 26.2 180.443 26.33C180.063 26.46 179.623 26.57 179.133 26.67C178.643 26.77 178.113 26.86 177.543 26.93C176.973 27 176.403 27.03 175.813 27.03C174.313 27.03 173.003 26.8 171.893 26.33C170.783 25.86 169.863 25.21 169.143 24.38C168.423 23.55 167.893 22.56 167.543 21.43C167.193 20.3 167.023 19.06 167.023 17.71H167.033ZM178.513 15.86C178.513 15.29 178.433 14.75 178.283 14.23C178.133 13.72 177.903 13.27 177.613 12.89C177.323 12.51 176.963 12.22 176.533 12C176.103 11.78 175.603 11.67 175.013 11.67C174.423 11.67 173.873 11.79 173.413 12.03C172.953 12.27 172.563 12.58 172.253 12.97C171.933 13.36 171.693 13.8 171.513 14.31C171.333 14.81 171.223 15.33 171.153 15.85H178.513V15.86Z" fill="white"/>
<path id="Vector_7" d="M196.412 12.4C196.082 12.29 195.632 12.17 195.052 12.04C194.472 11.92 193.802 11.85 193.042 11.85C192.602 11.85 192.142 11.9 191.652 11.99C191.162 12.08 190.822 12.16 190.622 12.23V26.58H186.662V9.52004C187.422 9.22004 188.382 8.94004 189.522 8.68004C190.672 8.42004 191.942 8.29004 193.332 8.29004C193.592 8.29004 193.902 8.31004 194.252 8.34004C194.602 8.37004 194.952 8.42004 195.302 8.48004C195.652 8.54004 195.992 8.61004 196.312 8.69004C196.642 8.77004 196.902 8.84004 197.102 8.91004L196.412 12.4Z" fill="white"/>
<path id="Vector_8" d="M198.902 17.64C198.902 16.32 199.102 15.08 199.492 13.92C199.882 12.76 200.442 11.77 201.172 10.92C201.902 10.07 202.792 9.40996 203.842 8.92996C204.892 8.44996 206.062 8.20996 207.372 8.20996C208.982 8.20996 210.512 8.51996 211.952 9.12996L211.102 12.52C210.642 12.31 210.122 12.14 209.552 12.01C208.972 11.87 208.362 11.8 207.702 11.8C206.152 11.8 204.972 12.31 204.172 13.32C203.362 14.34 202.962 15.77 202.962 17.62C202.962 19.47 203.342 20.81 204.102 21.85C204.862 22.89 206.152 23.41 207.962 23.41C208.642 23.41 209.302 23.34 209.962 23.2C210.612 23.06 211.182 22.89 211.662 22.69L212.222 26.11C211.782 26.34 211.122 26.54 210.242 26.73C209.362 26.91 208.452 27 207.512 27C206.052 27 204.782 26.77 203.702 26.3C202.622 25.83 201.732 25.18 201.022 24.35C200.312 23.52 199.782 22.52 199.432 21.37C199.082 20.22 198.912 18.97 198.912 17.62L198.902 17.64Z" fill="white"/>
<path id="Vector_9" d="M219.702 3.43012C219.702 4.21012 219.462 4.82012 218.982 5.28012C218.502 5.74012 217.932 5.96012 217.282 5.96012C216.632 5.96012 216.032 5.73012 215.552 5.28012C215.072 4.82012 214.832 4.21012 214.832 3.43012C214.832 2.65012 215.072 2.00012 215.552 1.55012C216.032 1.09012 216.612 0.870117 217.282 0.870117C217.952 0.870117 218.502 1.10012 218.982 1.55012C219.462 2.01012 219.702 2.63012 219.702 3.43012ZM219.282 26.5801H215.322V8.67012H216.312C217.952 8.67012 219.282 10.0001 219.282 11.6401V26.5901V26.5801Z" fill="white"/>
<path id="Vector_10" d="M230.012 8.21997C231.322 8.21997 232.422 8.38997 233.312 8.72997C234.202 9.06997 234.922 9.54997 235.452 10.17C235.982 10.79 236.372 11.54 236.592 12.41C236.822 13.29 236.932 14.25 236.932 15.3V26.16C236.322 26.3 235.402 26.46 234.172 26.66C232.942 26.85 231.552 26.95 230.002 26.95C228.972 26.95 228.042 26.85 227.192 26.64C226.342 26.43 225.612 26.1 225.012 25.65C224.412 25.19 223.942 24.6 223.602 23.87C223.262 23.14 223.092 22.24 223.092 21.16C223.092 20.08 223.282 19.27 223.662 18.56C224.042 17.85 224.562 17.27 225.212 16.83C225.862 16.39 226.622 16.07 227.482 15.87C228.342 15.68 229.242 15.58 230.182 15.58C230.622 15.58 231.072 15.61 231.552 15.67C232.032 15.73 232.542 15.82 233.092 15.96V15.27C233.092 14.79 233.042 14.33 232.932 13.9C232.822 13.47 232.632 13.08 232.362 12.75C232.092 12.42 231.732 12.16 231.282 11.98C230.832 11.8 230.272 11.71 229.592 11.71C228.672 11.71 227.832 11.78 227.072 11.92C226.312 12.06 225.682 12.22 225.212 12.4L224.722 9.03997C225.222 8.85997 225.952 8.66997 226.912 8.48997C227.872 8.30997 228.892 8.21997 229.982 8.21997H230.012ZM230.342 23.67C231.562 23.67 232.492 23.6 233.122 23.46V18.87C232.902 18.8 232.592 18.73 232.172 18.66C231.752 18.59 231.302 18.56 230.802 18.56C230.362 18.56 229.922 18.59 229.482 18.66C229.032 18.73 228.632 18.85 228.272 19.04C227.912 19.23 227.622 19.48 227.402 19.81C227.182 20.14 227.072 20.56 227.072 21.06C227.072 22.04 227.362 22.72 227.952 23.1C228.542 23.48 229.332 23.67 230.342 23.67Z" fill="white"/>
<path id="Vector_11" d="M247.743 26.92C246.563 26.9 245.593 26.76 244.813 26.51C244.033 26.26 243.423 25.9 242.963 25.43C242.503 24.96 242.183 24.38 242.003 23.68C241.813 22.98 241.723 22.19 241.723 21.3V0.69L245.683 0V20.52C245.683 21.02 245.723 21.44 245.793 21.79C245.873 22.13 246.003 22.42 246.203 22.66C246.403 22.9 246.663 23.08 247.003 23.21C247.343 23.34 247.773 23.43 248.293 23.5L247.733 26.93L247.743 26.92Z" fill="white"/>
<path id="Vector_12" d="M92.1522 46.1801C92.1522 47.5501 91.9822 48.8101 91.6422 49.9501C91.3022 51.0901 90.8222 52.0701 90.1822 52.9001C89.5522 53.7201 88.7622 54.3601 87.8122 54.8201C86.8622 55.2801 85.7922 55.5101 84.5922 55.5101C83.7822 55.5101 83.0422 55.4101 82.3722 55.2001C81.6922 54.9901 81.1422 54.7701 80.7022 54.5201V61.4701H76.7422V37.8001C77.5522 37.5701 78.5422 37.3501 79.7222 37.1501C80.9022 36.9401 82.1422 36.8401 83.4522 36.8401C84.7622 36.8401 86.0122 37.0601 87.0822 37.4901C88.1522 37.9201 89.0622 38.5501 89.8122 39.3601C90.5622 40.1701 91.1422 41.1501 91.5422 42.3101C91.9422 43.4601 92.1522 44.7601 92.1522 46.2001V46.1801ZM88.0922 46.2501C88.0922 44.4001 87.6922 42.9601 86.9022 41.9301C86.1022 40.9001 84.8222 40.3901 83.0622 40.3901C82.6922 40.3901 82.3022 40.4101 81.9022 40.4401C81.5022 40.4701 81.1022 40.5501 80.7122 40.6601V50.9001C81.0622 51.1501 81.5222 51.3901 82.1022 51.6001C82.6822 51.8101 83.2922 51.9301 83.9522 51.9301C85.3922 51.9301 86.4422 51.4201 87.1122 50.3901C87.7822 49.3601 88.1122 47.9801 88.1122 46.2501H88.0922Z" fill="white"/>
<path id="Vector_13" d="M105.992 40.9401C105.662 40.8301 105.212 40.7101 104.632 40.5801C104.052 40.4601 103.382 40.3901 102.622 40.3901C102.182 40.3901 101.722 40.4401 101.232 40.5301C100.742 40.6201 100.402 40.7001 100.202 40.7701V55.1201H96.2422V38.0601C97.0022 37.7601 97.9622 37.4801 99.1022 37.2201C100.242 36.9601 101.522 36.8301 102.912 36.8301C103.172 36.8301 103.482 36.8501 103.832 36.8801C104.182 36.9101 104.532 36.9601 104.882 37.0201C105.232 37.0801 105.572 37.1501 105.892 37.2301C106.222 37.3101 106.482 37.3801 106.682 37.4501L105.992 40.9401Z" fill="white"/>
<path id="Vector_14" d="M113.843 31.9699C113.843 32.7499 113.603 33.3599 113.123 33.8199C112.643 34.2799 112.073 34.4999 111.423 34.4999C110.773 34.4999 110.173 34.2699 109.693 33.8199C109.213 33.3699 108.973 32.7499 108.973 31.9699C108.973 31.1899 109.213 30.5399 109.693 30.0899C110.173 29.6299 110.753 29.4099 111.423 29.4099C112.093 29.4099 112.643 29.6399 113.123 30.0899C113.603 30.5499 113.843 31.1699 113.843 31.9699ZM113.413 55.1199H109.453V37.2099H111.523C112.573 37.2099 113.413 38.0599 113.413 39.0999V55.1199Z" fill="white"/>
<path id="Vector_15" d="M128.203 45.7001C128.203 43.8301 127.983 42.4801 127.533 41.6401C127.083 40.8101 126.253 40.3901 125.033 40.3901C124.593 40.3901 124.113 40.4201 123.593 40.4901C123.073 40.5601 122.673 40.6201 122.413 40.6601V55.1101H118.453V37.7801C119.213 37.5501 120.213 37.3301 121.443 37.1301C122.673 36.9201 123.983 36.8201 125.353 36.8201C126.533 36.8201 127.493 36.9801 128.253 37.3001C129.003 37.6201 129.633 38.0401 130.133 38.5701C130.373 38.3901 130.673 38.1901 131.053 37.9901C131.423 37.7801 131.843 37.6001 132.293 37.4201C132.743 37.2401 133.233 37.1101 133.753 36.9901C134.263 36.8801 134.783 36.8201 135.303 36.8201C136.633 36.8201 137.733 37.0201 138.593 37.4201C139.453 37.8201 140.133 38.3801 140.623 39.1001C141.113 39.8201 141.453 40.6901 141.633 41.7001C141.823 42.7201 141.913 43.8301 141.913 45.0401V55.1101H137.953V45.6901C137.953 43.8201 137.733 42.4701 137.303 41.6301C136.863 40.8001 136.023 40.3801 134.783 40.3801C134.153 40.3801 133.553 40.4901 132.983 40.7101C132.413 40.9301 131.993 41.1401 131.703 41.3401C131.873 41.9101 131.993 42.5201 132.063 43.1601C132.123 43.8001 132.163 44.4801 132.163 45.2101V55.1101H128.203V45.6901V45.7001Z" fill="white"/>
<path id="Vector_16" d="M145.803 46.25C145.803 44.67 146.023 43.29 146.473 42.11C146.923 40.92 147.513 39.93 148.253 39.15C148.993 38.36 149.843 37.77 150.803 37.37C151.763 36.97 152.743 36.77 153.743 36.77C156.103 36.77 157.933 37.54 159.253 39.06C160.573 40.59 161.233 42.87 161.233 45.91C161.233 46.14 161.233 46.4 161.213 46.68C161.203 46.97 161.183 47.22 161.163 47.45H149.873C149.983 48.89 150.463 50 151.333 50.79C152.193 51.58 153.443 51.97 155.083 51.97C156.043 51.97 156.923 51.88 157.713 51.7C158.503 51.52 159.133 51.32 159.593 51.12L160.113 54.51C159.893 54.62 159.593 54.74 159.213 54.87C158.833 55 158.393 55.11 157.903 55.21C157.413 55.31 156.883 55.4 156.313 55.47C155.743 55.54 155.163 55.57 154.583 55.57C153.083 55.57 151.773 55.34 150.653 54.87C149.543 54.4 148.623 53.75 147.903 52.92C147.183 52.09 146.653 51.1 146.303 49.97C145.953 48.84 145.783 47.6 145.783 46.25H145.803ZM157.283 44.4C157.283 43.83 157.203 43.29 157.053 42.77C156.903 42.26 156.673 41.81 156.383 41.43C156.093 41.05 155.733 40.76 155.303 40.54C154.883 40.32 154.373 40.21 153.783 40.21C153.193 40.21 152.643 40.33 152.183 40.57C151.723 40.81 151.333 41.12 151.023 41.51C150.703 41.9 150.463 42.34 150.283 42.85C150.113 43.35 149.993 43.87 149.923 44.39H157.283V44.4Z" fill="white"/>
</g>
</g>
</g>
</g>
<defs>
<clipPath id="clip0_6644_6115">
<rect width="248.3" height="61.46" fill="white"/>
</clipPath>
</defs>
</svg>
