<svg width="101" height="100" viewBox="0 0 101 100" fill="none" xmlns="http://www.w3.org/2000/svg">
<g id="credit-card-svgrepo-com">
<path id="Vector" fill-rule="evenodd" clip-rule="evenodd" d="M17.1673 29.1665C17.1673 26.8653 19.0328 24.9998 21.334 24.9998H79.6673C81.9686 24.9998 83.834 26.8653 83.834 29.1665V33.3332H83.6731H83.5152H83.3577H83.2002H83.0431H82.8861H82.729H82.5723H82.4156H82.259H82.1027H81.9465H81.7906H81.6348H81.4794H81.3236H81.1686H81.0131H80.8582H80.7036H80.5486H80.394H80.2398H80.0857H79.9315H79.7773H79.6236H79.4702H79.3165H79.1631H79.0102H78.8573H78.7044H78.5515H78.399H78.2465H78.0944H77.9419H77.7902H77.6382H77.4865H77.3348H77.1836H77.0323H76.8811H76.7298H76.579H76.4282H76.2777H76.1273H75.9769H75.8265H75.6765H75.5265H75.3769H75.2269H75.0773H74.9281H74.779H74.6294H74.4806H74.3315H74.1827H74.034H73.8857H73.7373H73.589H73.4407H73.2927H73.1448H72.9969H72.849H72.7015H72.554H72.4069H72.2594H72.1123H71.9652H71.8186H71.6719H71.5248H71.3786H71.2319H71.0856H70.9394H70.7931H70.6473H70.5015H70.3556H70.2098H70.0644H69.919H69.7736H69.6281H69.4827H69.3377H69.1927H69.0482H68.9031H68.7586H68.614H68.4694H68.3248H68.1806H68.0365H67.8923H67.7481H67.6044H67.4607H67.3169H67.1731H67.0294H66.8861H66.7427H66.5994H66.4561H66.3131H66.1698H66.0269H65.884H65.7411H65.5986H65.4557H65.3131H65.1706H65.0281H64.8861H64.7436H64.6015H64.4594H64.3173H64.1756H64.0336H63.8919H63.7498H63.6081H63.4669H63.3252H63.1836H63.0423H62.9011H62.7598H62.6186H62.4773H62.3365H62.1952H62.0544H61.9136H61.7727H61.6319H61.4911H61.3507H61.2098H61.0694H60.929H60.7886H60.6481H60.5077H60.3677H60.2273H60.0873H59.9473H59.8073H59.6673H59.5273H59.3873H59.2473H59.1077H58.9681H58.8281H58.6886H58.549H58.4094H58.2698H58.1302H57.9911H57.8515H57.7123H57.5727H57.4336H57.2944H57.1548H57.0156H56.8765H56.7377H56.5986H56.4594H56.3202H56.1815H56.0423H55.9036H55.7648H55.6256H55.4869H55.3481H55.2094H55.0706H54.9319H54.7931H54.6544H54.5157H54.3769H54.2386H54.0998H53.9611H53.8227H53.684H53.5456H53.4069H53.2686H53.1302H52.9915H52.8531H52.7148H52.5761H52.4377H52.2994H52.1611H52.0227H51.8844H51.7461H51.6073H51.469H51.3306H51.1923H51.054H50.9156H50.7773H50.639H50.5006H50.3623H50.224H50.0857H49.9473H49.809H49.6707H49.5323H49.394H49.2552H49.1169H48.9786H48.8402H48.7019H48.5636H48.4252H48.2865H48.1482H48.0098H47.8711H47.7327H47.5944H47.4557H47.3173H47.1786H47.0402H46.9015H46.7627H46.6244H46.4856H46.3469H46.2081H46.0694H45.9306H45.7919H45.6532H45.5144H45.3757H45.2365H45.0977H44.959H44.8198H44.6811H44.5419H44.4027H44.2636H44.1248H43.9857H43.8465H43.7069H43.5677H43.4286H43.289H43.1498H43.0102H42.8711H42.7315H42.5919H42.4523H42.3127H42.1731H42.0333H41.8936H41.7538H41.6139H41.474H41.3341H41.1941H41.0541H40.9139H40.7738H40.6336H40.4934H40.3531H40.2127H40.0723H39.9318H39.7913H39.6507H39.5101H39.3694H39.2286H39.0878H38.9469H38.8059H38.6649H38.5239H38.3827H38.2416H38.1003H37.9589H37.8176H37.6761H37.5346H37.3929H37.2513H37.1095H36.9677H36.8258H36.6839H36.5419H36.3997H36.2575H36.1153H35.9729H35.8305H35.688H35.5455H35.4028H35.2601H35.1173H34.9744H34.8314H34.6884H34.5452H34.4019H34.2586H34.1152H33.9717H33.8282H33.6845H33.5408H33.3969H33.253H33.1089H32.9648H32.8206H32.6763H32.5319H32.3874H32.2428H32.0981H31.9533H31.8084H31.6634H31.5184H31.3732H31.2279H31.0825H30.937H30.7914H30.6457H30.4999H30.354H30.208H30.0619H29.9156H29.7693H29.6228H29.4763H29.3296H29.1828H29.0359H28.8889H28.7418H28.5946H28.4472H28.2997H28.1522H28.0044H27.8566H27.7087H27.5606H27.4124H27.2641H27.1157H26.9672H26.8184H26.6697H26.5207H26.3717H26.2225H26.0732H25.9238H25.7742H25.6245H25.4747H25.3248H25.1747H25.0244H24.8741H24.7236H24.573H24.4222H24.2714H24.1203H23.9692H23.8179H23.6664H23.5149H23.3631H23.2112H23.0592H22.9071H22.7548H22.6024H22.4498H22.297H22.1441H21.9912H21.838H21.6846H21.5312H21.3776H21.2238H21.0699H20.9158H20.7615H20.6072H20.4526H20.2979H20.1431H19.9881H19.8329H19.6776H19.5221H19.3664H19.2106H19.0547H18.8985H18.7422H18.5858H18.4292H18.2724H18.1154H17.9583H17.801H17.6435H17.4859H17.3281H17.1702L17.1673 29.1665ZM17.1673 74.9998V45.8332H83.834V74.9998C83.834 77.3011 81.9686 79.1665 79.6673 79.1665H21.334C19.0328 79.1665 17.1673 77.3011 17.1673 74.9998ZM21.334 16.6665C14.4304 16.6665 8.83398 22.263 8.83398 29.1665V37.4998V41.6665V74.9998C8.83398 81.9036 14.4304 87.4998 21.334 87.4998H79.6673C86.5711 87.4998 92.1673 81.9036 92.1673 74.9998V41.6665V37.4998V29.1665C92.1673 22.263 86.5711 16.6665 79.6673 16.6665H21.334ZM58.834 58.3332C56.5327 58.3332 54.6673 60.1986 54.6673 62.4998C54.6673 64.8011 56.5327 66.6665 58.834 66.6665H75.5006C77.8019 66.6665 79.6673 64.8011 79.6673 62.4998C79.6673 60.1986 77.8019 58.3332 75.5006 58.3332H58.834Z" fill="white"/>
</g>
</svg>
