<svg width="64" height="64" viewBox="0 0 64 64" fill="none" xmlns="http://www.w3.org/2000/svg">
<g id="deep-learning-svgrepo-com" clip-path="url(#clip0_6816_20975)">
<path id="Vector" d="M54.6664 23.9998C52.427 24.0033 50.264 24.8142 48.5741 26.2836C46.8842 27.7531 45.7808 29.7826 45.4664 31.9998H42.5331C42.2835 30.7571 41.6833 29.6118 40.8036 28.6992C39.9239 27.7866 38.8013 27.1449 37.5685 26.8499C36.3358 26.5549 35.0443 26.6189 33.8468 27.0344C32.6492 27.4498 31.5956 28.1994 30.8104 29.1945L23.6744 25.9492L32.0558 14.6825C33.2031 15.5455 34.602 16.0079 36.0377 15.9988C37.4733 15.9896 38.8662 15.5094 40.0024 14.6318L46.2371 21.3332H42.6664V23.9998H50.6664V15.9998H47.9998V19.3145L41.7704 12.6158C42.3511 11.6188 42.6601 10.4869 42.6664 9.33317C42.6664 7.56506 41.9641 5.86937 40.7138 4.61913C39.4636 3.36888 37.7679 2.6665 35.9998 2.6665C34.2317 2.6665 32.536 3.36888 31.2857 4.61913C30.0355 5.86937 29.3331 7.56506 29.3331 9.33317C29.3396 10.4995 29.6552 11.6432 30.2478 12.6478L21.1918 24.8212L13.2131 21.1918C13.4672 19.8999 13.3173 18.561 12.7838 17.3572L22.6611 13.6638L21.4878 17.3198L23.9998 18.2078L26.6664 10.6665L19.1251 7.99984L18.2344 10.5145L20.9278 11.4665L11.1704 15.1145C10.2876 14.2982 9.20036 13.736 8.02391 13.4876C6.84746 13.2393 5.62571 13.3139 4.48827 13.7037C3.35083 14.0936 2.34011 14.784 1.56331 15.7017C0.786511 16.6195 0.272605 17.7304 0.0761023 18.9166C-0.1204 20.1029 0.00782887 21.3201 0.447188 22.4394C0.886546 23.5586 1.62065 24.5381 2.57163 25.2738C3.52262 26.0096 4.65502 26.4743 5.84871 26.6185C7.04241 26.7628 8.2529 26.5812 9.35177 26.0932L14.9118 33.2612L9.43711 40.6212C8.30767 40.0963 7.0538 39.8983 5.8176 40.0497C4.58139 40.201 3.41229 40.6955 2.4428 41.4773C1.47331 42.2591 0.742196 43.2968 0.332318 44.4729C-0.0775601 45.6489 -0.14981 46.9163 0.123756 48.1313C0.397323 49.3463 1.00577 50.4604 1.88013 51.3473C2.75449 52.2342 3.85981 52.8584 5.0708 53.1493C6.2818 53.4401 7.55005 53.3859 8.73181 52.9928C9.91358 52.5997 10.9616 51.8834 11.7571 50.9252L21.0478 55.1572L18.2344 56.1518L19.1251 58.6665L26.6664 55.9998L23.9998 48.4585L21.4851 49.3465L22.6451 52.9572L13.0238 48.5705C13.2197 47.9545 13.324 47.3129 13.3331 46.6665C13.3315 46.1939 13.2797 45.7228 13.1784 45.2612L21.3198 41.5145L30.5891 53.4612C29.8818 54.4484 29.4579 55.6102 29.3632 56.8209C29.2684 58.0316 29.5064 59.2452 30.0515 60.3304C30.5966 61.4156 31.4279 62.3312 32.4557 62.9781C33.4835 63.6251 34.6685 63.9787 35.8827 64.0009C37.097 64.023 38.2941 63.7128 39.3448 63.1038C40.3955 62.4947 41.2597 61.6101 41.8439 60.5455C42.4282 59.4808 42.7103 58.2767 42.6597 57.0633C42.6092 55.85 42.2279 54.6735 41.5571 53.6612L47.9998 47.2185V50.6665H50.6664V42.6665H42.6664V45.3332H46.1144L39.6718 51.7758C38.6231 51.0752 37.3952 50.6908 36.1342 50.6686C34.8732 50.6464 33.6324 50.9872 32.5598 51.6505L23.8051 40.3705L30.6158 37.2345C31.3716 38.2849 32.4175 39.0919 33.6252 39.5568C34.8329 40.0216 36.15 40.124 37.415 39.8514C38.68 39.5788 39.8381 38.943 40.7472 38.0221C41.6563 37.1011 42.2769 35.935 42.5331 34.6665H45.4664C45.7256 36.4328 46.4868 38.0874 47.6595 39.4334C48.8323 40.7794 50.3671 41.7601 52.0813 42.2586C53.7954 42.7571 55.6168 42.7526 57.3285 42.2454C59.0401 41.7383 60.57 40.75 61.736 39.3982C62.9019 38.0463 63.6549 36.3879 63.9051 34.6203C64.1554 32.8527 63.8925 31.0504 63.1476 29.428C62.4027 27.8057 61.2073 26.4315 59.7037 25.4691C58.2001 24.5068 56.4516 23.9968 54.6664 23.9998ZM35.9998 5.33317C36.7909 5.33317 37.5643 5.56777 38.222 6.00729C38.8798 6.44682 39.3925 7.07153 39.6953 7.80244C39.998 8.53334 40.0773 9.33761 39.9229 10.1135C39.7686 10.8895 39.3876 11.6022 38.8282 12.1616C38.2688 12.721 37.5561 13.102 36.7801 13.2563C36.0042 13.4107 35.1999 13.3314 34.469 13.0287C33.7381 12.7259 33.1134 12.2132 32.6739 11.5555C32.2344 10.8977 31.9998 10.1243 31.9998 9.33317C32.0012 8.27274 32.4231 7.25614 33.1729 6.5063C33.9227 5.75646 34.9393 5.33458 35.9998 5.33317ZM35.9998 53.3332C36.7909 53.3332 37.5643 53.5678 38.222 54.0073C38.8798 54.4468 39.3925 55.0715 39.6953 55.8024C39.998 56.5333 40.0773 57.3376 39.9229 58.1135C39.7686 58.8895 39.3876 59.6022 38.8282 60.1616C38.2688 60.721 37.5561 61.102 36.7801 61.2563C36.0042 61.4107 35.1999 61.3314 34.469 61.0287C33.7381 60.7259 33.1134 60.2132 32.6739 59.5555C32.2344 58.8977 31.9998 58.1243 31.9998 57.3332C32.0012 56.2727 32.4231 55.2561 33.1729 54.5063C33.9227 53.7565 34.9393 53.3346 35.9998 53.3332ZM2.66644 19.9998C2.66193 19.3251 2.82818 18.6602 3.14973 18.067C3.47127 17.4737 3.93766 16.9715 4.50548 16.607C5.07331 16.2425 5.72412 16.0275 6.39735 15.9822C7.07058 15.9368 7.74435 16.0624 8.35595 16.3475C8.96756 16.6325 9.49712 17.0676 9.89537 17.6123C10.2936 18.157 10.5476 18.7936 10.6337 19.4628C10.7197 20.1321 10.6351 20.8122 10.3877 21.44C10.1402 22.0677 9.73802 22.6227 9.21844 23.0532L8.83444 23.3518C8.23175 23.7447 7.53403 23.9674 6.81516 23.9961C6.09628 24.0249 5.38301 23.8587 4.75088 23.5151C4.11874 23.1716 3.59127 22.6635 3.22433 22.0447C2.85738 21.4258 2.66461 20.7193 2.66644 19.9998ZM11.5198 24.5412C11.7783 24.2716 12.0138 23.9808 12.2238 23.6718L19.5624 27.0078L16.5651 31.0398L11.5198 24.5412ZM6.66644 50.6665C5.87531 50.6665 5.10196 50.4319 4.44416 49.9924C3.78636 49.5529 3.27367 48.9281 2.97092 48.1972C2.66817 47.4663 2.58896 46.6621 2.7433 45.8861C2.89764 45.1102 3.2786 44.3975 3.83801 43.8381C4.39742 43.2787 5.11015 42.8977 5.88608 42.7434C6.662 42.589 7.46627 42.6682 8.19717 42.971C8.92808 43.2737 9.55279 43.7864 9.99232 44.4442C10.4318 45.102 10.6664 45.8754 10.6664 46.6665C10.665 47.7269 10.2431 48.7435 9.49331 49.4934C8.74347 50.2432 7.72687 50.6651 6.66644 50.6665ZM12.0984 42.8238C11.9396 42.6057 11.7677 42.3973 11.5838 42.1998L16.6104 35.4478L19.6398 39.3518L12.0984 42.8238ZM22.1251 38.2078L18.2638 33.2265L22.0504 28.1385L29.5998 31.5732C29.2801 32.6239 29.2497 33.7413 29.5118 34.8078L22.1251 38.2078ZM35.9998 37.3332C35.2086 37.3332 34.4353 37.0986 33.7775 36.659C33.1197 36.2195 32.607 35.5948 32.3043 34.8639C32.0015 34.133 31.9223 33.3287 32.0766 32.5528C32.231 31.7769 32.6119 31.0642 33.1713 30.5047C33.7308 29.9453 34.4435 29.5644 35.2194 29.41C35.9953 29.2557 36.7996 29.3349 37.5305 29.6377C38.2614 29.9404 38.8861 30.4531 39.3256 31.1109C39.7652 31.7687 39.9998 32.542 39.9998 33.3332C39.9984 34.3936 39.5765 35.4102 38.8266 36.16C38.0768 36.9099 37.0602 37.3318 35.9998 37.3332ZM54.6664 39.9998C53.3479 39.9998 52.059 39.6088 50.9626 38.8763C49.8663 38.1438 49.0118 37.1026 48.5072 35.8844C48.0027 34.6662 47.8706 33.3258 48.1279 32.0326C48.3851 30.7394 49.02 29.5515 49.9524 28.6191C50.8847 27.6868 52.0726 27.0518 53.3658 26.7946C54.659 26.5374 55.9995 26.6694 57.2177 27.174C58.4358 27.6786 59.477 28.533 60.2096 29.6294C60.9421 30.7257 61.3331 32.0146 61.3331 33.3332C61.3317 35.1008 60.6289 36.7957 59.3789 38.0457C58.129 39.2956 56.4341 39.9984 54.6664 39.9998ZM58.6664 33.3332C58.6664 34.1243 58.4318 34.8977 57.9923 35.5555C57.5528 36.2132 56.9281 36.7259 56.1972 37.0287C55.4663 37.3314 54.662 37.4107 53.8861 37.2563C53.1101 37.102 52.3974 36.721 51.838 36.1616C51.2786 35.6022 50.8976 34.8895 50.7433 34.1135C50.589 33.3376 50.6682 32.5333 50.9709 31.8024C51.2737 31.0715 51.7864 30.4468 52.4442 30.0073C53.102 29.5678 53.8753 29.3332 54.6664 29.3332C55.7269 29.3346 56.7435 29.7565 57.4933 30.5063C58.2431 31.2561 58.665 32.2727 58.6664 33.3332Z" fill="white"/>
</g>
<defs>
<clipPath id="clip0_6816_20975">
<rect width="64" height="64" fill="white"/>
</clipPath>
</defs>
</svg>
