<svg width="101" height="100" viewBox="0 0 101 100" fill="none" xmlns="http://www.w3.org/2000/svg">
<g id="hex-tiles-svgrepo-com">
<path id="Vector" fill-rule="evenodd" clip-rule="evenodd" d="M23.1555 12.4998L13.6316 29.1665L23.1554 45.8332H42.129L51.6527 29.1665L42.129 12.4998H23.1555ZM58.8698 24.9998L48.1648 6.26592C47.4227 4.96771 46.0423 4.1665 44.5468 4.1665H20.7374C19.2422 4.1665 17.8616 4.96771 17.1198 6.26592L5.21501 27.0993C4.48302 28.3802 4.48302 29.9528 5.21501 31.2338L15.9385 49.9998L5.21501 68.7661C4.48302 70.0469 4.48302 71.6194 5.21501 72.9002L17.1198 93.7336C17.8616 95.0319 19.2422 95.8332 20.7374 95.8332H44.5468C46.0423 95.8332 47.4227 95.0319 48.1648 93.7336L58.8698 74.9998H80.261C81.7564 74.9998 83.1368 74.1986 83.8789 72.9002L95.7835 52.0669C96.5156 50.7861 96.5156 49.2136 95.7835 47.9328L83.8789 27.0993C83.1368 25.801 81.7564 24.9998 80.261 24.9998H58.8698ZM58.8698 66.6665L49.346 49.9998L58.8698 33.3332H77.8431L87.3668 49.9998L77.8431 66.6665H58.8698ZM51.6527 70.8332L42.129 54.1665H23.1555L13.6316 70.8332L23.1555 87.4998H42.129L51.6527 70.8332Z" fill="white"/>
</g>
</svg>
