<svg width="101" height="100" viewBox="0 0 101 100" fill="none" xmlns="http://www.w3.org/2000/svg">
<g id="inspection-svgrepo-com" clip-path="url(#clip0_6816_20972)">
<path id="Vector" d="M4.66797 87.5H96.3346V12.5H4.66797V87.5ZM8.83464 16.6667H92.168V83.3333H8.83464V16.6667ZM79.668 29.1667H21.3346V25H79.668V29.1667ZM33.8346 37.5V33.3333H67.168V37.5H33.8346ZM83.8346 62.5H88.0013C87.996 66.0597 86.8495 69.5238 84.73 72.3838C82.6106 75.2437 79.63 77.3487 76.2259 78.3896C72.8219 79.4305 69.1737 79.3524 65.8173 78.1669C62.4608 76.9814 59.5729 74.7509 57.5778 71.8029C55.5826 68.855 54.5852 65.3449 54.7322 61.7883C54.8791 58.2317 56.1626 54.8159 58.3942 52.0426C60.6258 49.2692 63.6878 47.2845 67.1306 46.3799C70.5734 45.4753 74.2155 45.6985 77.5221 47.0167L75.9846 50.8917C73.5013 49.8965 70.7643 49.7242 68.1758 50.4003C65.5873 51.0764 63.2841 52.565 61.6046 54.6475C59.9251 56.73 58.9581 59.2963 58.8457 61.9692C58.7332 64.6422 59.4813 67.2806 60.98 69.4968C62.4786 71.7129 64.6487 73.3898 67.1713 74.2809C69.6938 75.1719 72.4357 75.2301 74.9938 74.447C77.5519 73.6639 79.7912 72.0807 81.3826 69.9301C82.974 67.7796 83.8335 65.1753 83.8346 62.5ZM86.5346 48.725L89.468 51.6875L71.3263 69.6042L63.1971 61.475L66.143 58.5292L71.343 63.7292L86.5346 48.725ZM17.168 62.5H38.0013V66.6667H17.168V62.5Z" fill="white"/>
</g>
<defs>
<clipPath id="clip0_6816_20972">
<rect width="100" height="100" fill="white" transform="translate(0.5)"/>
</clipPath>
</defs>
</svg>
