<svg width="100" height="100" viewBox="0 0 100 100" fill="none" xmlns="http://www.w3.org/2000/svg">
<g id="network-svgrepo-com (2) 1">
<path id="Vector" d="M49.9993 57.9584C54.3946 57.9584 57.9577 54.3953 57.9577 50.0001C57.9577 45.6048 54.3946 42.0417 49.9993 42.0417C45.6041 42.0417 42.041 45.6048 42.041 50.0001C42.041 54.3953 45.6041 57.9584 49.9993 57.9584Z" stroke="white" stroke-width="4" stroke-miterlimit="10"/>
<path id="Vector_2" d="M38.084 69.8749C38.084 66.7144 39.3395 63.6834 41.5743 61.4486C43.8091 59.2138 46.8402 57.9583 50.0006 57.9583C53.1611 57.9583 56.1922 59.2138 58.427 61.4486C60.6618 63.6834 61.9173 66.7144 61.9173 69.8749" stroke="white" stroke-width="4" stroke-miterlimit="10"/>
<path id="Vector_3" d="M85.7923 22.1667C90.1876 22.1667 93.7506 18.6036 93.7506 14.2083C93.7506 9.81307 90.1876 6.25 85.7923 6.25C81.3971 6.25 77.834 9.81307 77.834 14.2083C77.834 18.6036 81.3971 22.1667 85.7923 22.1667Z" stroke="white" stroke-width="4" stroke-miterlimit="10"/>
<path id="Vector_4" d="M14.2083 93.7499C18.6036 93.7499 22.1667 90.1869 22.1667 85.7916C22.1667 81.3963 18.6036 77.8333 14.2083 77.8333C9.81307 77.8333 6.25 81.3963 6.25 85.7916C6.25 90.1869 9.81307 93.7499 14.2083 93.7499Z" stroke="white" stroke-width="4" stroke-miterlimit="10"/>
<path id="Vector_5" d="M83.7923 93.7499C89.2922 93.7499 93.7507 89.2914 93.7507 83.7916C93.7507 78.2918 89.2922 73.8333 83.7923 73.8333C78.2925 73.8333 73.834 78.2918 73.834 83.7916C73.834 89.2914 78.2925 93.7499 83.7923 93.7499Z" stroke="white" stroke-width="4" stroke-miterlimit="10"/>
<path id="Vector_6" d="M16.2083 26.1667C21.7082 26.1667 26.1667 21.7082 26.1667 16.2083C26.1667 10.7085 21.7082 6.25 16.2083 6.25C10.7085 6.25 6.25 10.7085 6.25 16.2083C6.25 21.7082 10.7085 26.1667 16.2083 26.1667Z" stroke="white" stroke-width="4" stroke-miterlimit="10"/>
<path id="Vector_7" d="M33.1243 66.875L19.791 80.2083" stroke="white" stroke-width="4" stroke-miterlimit="10"/>
<path id="Vector_8" d="M80.2083 19.7917L66.875 33.1251" stroke="white" stroke-width="4" stroke-miterlimit="10"/>
<path id="Vector_9" d="M73.8751 50C73.931 55.5436 72.0593 60.9344 68.5802 65.2506C65.1011 69.5668 60.2305 72.5403 54.8015 73.6626C49.3725 74.7849 43.7221 73.9864 38.8168 71.4035C33.9114 68.8206 30.0557 64.6138 27.9089 59.5025C25.7622 54.3912 25.4577 48.6928 27.0477 43.3819C28.6377 38.0709 32.0233 33.4773 36.6255 30.3865C41.2278 27.2957 46.7609 25.8997 52.2786 26.4372C57.7963 26.9747 62.9559 29.4124 66.8751 33.3333C71.318 37.7464 73.8344 43.738 73.8751 50Z" stroke="white" stroke-width="4" stroke-miterlimit="10"/>
<path id="Vector_10" d="M76.75 76.75L66.875 66.875" stroke="white" stroke-width="4" stroke-miterlimit="10"/>
<path id="Vector_11" d="M33.125 33.125L23.25 23.25" stroke="white" stroke-width="4" stroke-miterlimit="10"/>
</g>
</svg>
