<svg width="101" height="100" viewBox="0 0 101 100" fill="none" xmlns="http://www.w3.org/2000/svg">
<g id="language-translate-svgrepo-com" clip-path="url(#clip0_6816_20978)">
<path id="Vector" d="M33.8336 62.4998H15.0836C12.3216 62.4976 9.67336 61.3995 7.72034 59.4464C5.76731 57.4934 4.66913 54.8452 4.66693 52.0832V14.5832C4.66913 11.8212 5.76731 9.17294 7.72034 7.21991C9.67336 5.26689 12.3216 4.16871 15.0836 4.1665H52.5836C55.3456 4.16871 57.9938 5.26689 59.9468 7.21991C61.8999 9.17294 62.9981 11.8212 63.0003 14.5832V33.3332H58.8336V14.5832C58.8314 12.9262 58.1722 11.3378 57.0006 10.1662C55.8289 8.99456 54.2405 8.33538 52.5836 8.33317H15.0836C13.4267 8.33538 11.8382 8.99456 10.6666 10.1662C9.49499 11.3378 8.8358 12.9262 8.83359 14.5832V52.0832C8.8358 53.7401 9.49499 55.3285 10.6666 56.5002C11.8382 57.6718 13.4267 58.331 15.0836 58.3332H33.8336V62.4998ZM33.6753 42.454C29.0446 46.0492 23.692 48.6019 17.9836 49.9373L16.9753 45.8957C21.9263 44.7373 26.5829 42.5636 30.6503 39.5123C25.7187 34.3146 22.3312 27.8469 20.8669 20.8332H17.1669V16.6665H30.8294L28.5628 14.3998L31.5086 11.454L36.7169 16.6665H50.5003V20.8332H46.6919C45.657 25.4945 43.8154 29.9391 41.2503 33.9665C37.7708 35.7746 35.0733 38.7937 33.6669 42.454H33.6753ZM33.8086 36.6915C38.0498 32.2754 41.0208 26.7967 42.4086 20.8332H25.1753C26.5751 26.7993 29.5575 32.2776 33.8086 36.6915ZM96.3336 85.1957V48.1373C96.349 46.7491 96.0895 45.3715 95.57 44.084C95.0505 42.7965 94.2814 41.6246 93.3069 40.6357C92.3323 39.6469 91.1718 38.8607 89.892 38.3225C88.6122 37.7843 87.2386 37.5047 85.8503 37.4998H48.6378C45.8175 37.5031 43.1138 38.6249 41.1196 40.6191C39.1254 42.6133 38.0036 45.3171 38.0003 48.1373V85.1957C38.0036 88.0159 39.1254 90.7197 41.1196 92.7139C43.1138 94.7081 45.8175 95.8299 48.6378 95.8332H85.6961C88.5163 95.8299 91.2201 94.7081 93.2143 92.7139C95.2085 90.7197 96.3303 88.0159 96.3336 85.1957ZM85.8503 41.6665C87.5252 41.6676 89.1312 42.3335 90.3156 43.5178C91.5 44.7022 92.1658 46.3082 92.1669 47.9832V85.3498C92.1658 87.0248 91.5 88.6308 90.3156 89.8152C89.1312 90.9995 87.5252 91.6654 85.8503 91.6665H48.4836C46.8086 91.6654 45.2026 90.9995 44.0183 89.8152C42.8339 88.6308 42.168 87.0248 42.1669 85.3498V47.9832C42.168 46.3082 42.8339 44.7022 44.0183 43.5178C45.2026 42.3335 46.8086 41.6676 48.4836 41.6665H85.8503ZM77.1586 74.9998H57.1753L52.3461 84.2915L48.6544 82.3748L67.1669 46.729L85.6794 82.3748L81.9878 84.2915L77.1586 74.9998ZM74.9919 70.8332L67.1669 55.7707L59.3419 70.8332H74.9919ZM25.5003 91.7082C23.2911 91.7049 21.1734 90.8258 19.6114 89.2637C18.0493 87.7017 17.1702 85.584 17.1669 83.3748V73.779L24.0253 80.6373L26.9711 77.6915L15.1086 65.8332L3.24609 77.6915L6.19193 80.6373L13.0003 73.8332V83.3832C13.0036 86.6974 14.3216 89.8749 16.6651 92.2183C19.0086 94.5618 22.1861 95.8799 25.5003 95.8832H34.0753V91.7165L25.5003 91.7082ZM94.8586 19.3623L88.0003 26.2207V16.6665C87.9969 13.3523 86.6789 10.1748 84.3354 7.83132C81.992 5.48784 78.8144 4.16981 75.5003 4.1665H67.1669V8.33317H75.5003C77.7094 8.33648 79.8271 9.21551 81.3892 10.7776C82.9512 12.3397 83.8303 14.4574 83.8336 16.6665V26.1707L77.0253 19.3582L74.0794 22.304L85.9419 34.1707L97.8086 22.304L94.8586 19.3623Z" fill="white"/>
</g>
<defs>
<clipPath id="clip0_6816_20978">
<rect width="100" height="100" fill="white" transform="translate(0.5)"/>
</clipPath>
</defs>
</svg>
