<svg width="101" height="100" viewBox="0 0 101 100" fill="none" xmlns="http://www.w3.org/2000/svg">
<g id="network-3-round-1083-svgrepo-com (1) 1">
<path id="Exclude" fill-rule="evenodd" clip-rule="evenodd" d="M46.0652 46.4H49.6652V53.6H46.0652C44.078 53.6 42.4652 51.9872 42.4652 50C42.4652 48.0128 44.078 46.4 46.0652 46.4ZM57.2 46.4H74.8652C76.8524 46.4 78.4652 48.0128 78.4652 50C78.4652 51.9872 76.8524 53.6 74.8652 53.6H57.2V46.4ZM46.0652 71.6H49.6652V78.8H46.0652C44.078 78.8 42.4652 77.1872 42.4652 75.2C42.4652 73.2128 44.078 71.6 46.0652 71.6ZM57.2 71.6H74.8652C76.8524 71.6 78.4652 73.2128 78.4652 75.2C78.4652 77.1872 76.8524 78.8 74.8652 78.8H57.2V71.6ZM46.0652 21.2H49.6652V28.4H46.0652C44.078 28.4 42.4652 26.7872 42.4652 24.8C42.4652 22.8128 44.078 21.2 46.0652 21.2ZM57.2 21.2H74.8652C76.8524 21.2 78.4652 22.8128 78.4652 24.8C78.4652 26.7872 76.8524 28.4 74.8652 28.4H57.2V21.2ZM35.2652 28.4C35.2652 32.378 38.4872 35.6 42.4652 35.6H78.4652C82.4432 35.6 86 32.378 86 28.4V21.2C86 17.222 82.4432 14 78.4652 14H42.4652C38.4872 14 35.2652 17.222 35.2652 21.2H21.2V14H14V71.5965C14 75.5745 16.8908 78.8 20.8688 78.8H21.6536H35.2652C35.2652 82.778 38.4872 86 42.4652 86H78.4652C82.4432 86 86 82.778 86 78.8V71.6C86 67.622 82.4432 64.4 78.4652 64.4H42.4652C38.4872 64.4 35.2652 67.622 35.2652 71.6H24.4508C22.4708 71.6 21.2 69.9941 21.2 68.0141V53.6H35.2652C35.2652 57.578 38.4872 60.8 42.4652 60.8H78.4652C82.4432 60.8 86 57.578 86 53.6V46.4C86 42.422 82.4432 39.2 78.4652 39.2H42.4652C38.4872 39.2 35.2652 42.422 35.2652 46.4H21.2V28.4H35.2652ZM51.1052 44.96V55.04H46.0652C43.2827 55.04 41.0252 52.7825 41.0252 50C41.0252 47.2175 43.2827 44.96 46.0652 44.96H51.1052ZM55.76 44.96H74.8652C77.6477 44.96 79.9052 47.2175 79.9052 50C79.9052 52.7825 77.6477 55.04 74.8652 55.04H55.76V44.96ZM51.1052 70.16V80.24H46.0652C43.2827 80.24 41.0252 77.9825 41.0252 75.2C41.0252 72.4175 43.2827 70.16 46.0652 70.16H51.1052ZM55.76 70.16H74.8652C77.6477 70.16 79.9052 72.4175 79.9052 75.2C79.9052 77.9825 77.6477 80.24 74.8652 80.24H55.76V70.16ZM51.1052 19.76V29.84H46.0652C43.2827 29.84 41.0252 27.5825 41.0252 24.8C41.0252 22.0175 43.2827 19.76 46.0652 19.76H51.1052ZM55.76 19.76H74.8652C77.6477 19.76 79.9052 22.0175 79.9052 24.8C79.9052 27.5825 77.6477 29.84 74.8652 29.84H55.76V19.76ZM36.7052 26.96V28.4C36.7052 31.5827 39.2825 34.16 42.4652 34.16H78.4652C81.7337 34.16 84.56 31.4996 84.56 28.4V21.2C84.56 18.1004 81.7337 15.44 78.4652 15.44H42.4652C39.2825 15.44 36.7052 18.0173 36.7052 21.2V22.64H19.76V15.44H15.44V71.5965C15.44 74.8707 17.7746 77.36 20.8688 77.36H36.7052V78.8C36.7052 81.9827 39.2825 84.56 42.4652 84.56H78.4652C81.7337 84.56 84.56 81.8996 84.56 78.8V71.6C84.56 68.5005 81.7337 65.84 78.4652 65.84H42.4652C39.2825 65.84 36.7052 68.4173 36.7052 71.6V73.04H24.4508C21.495 73.04 19.76 70.596 19.76 68.0141V52.16H36.7052V53.6C36.7052 56.7827 39.2825 59.36 42.4652 59.36H78.4652C81.7337 59.36 84.56 56.6996 84.56 53.6V46.4C84.56 43.3005 81.7337 40.64 78.4652 40.64H42.4652C39.2825 40.64 36.7052 43.2173 36.7052 46.4V47.84H19.76V26.96H36.7052ZM14 71.5965C14 75.5745 16.8908 78.8 20.8688 78.8H35.2652C35.2652 82.778 38.4872 86 42.4652 86H78.4652C82.4432 86 86 82.778 86 78.8V71.6C86 67.622 82.4432 64.4 78.4652 64.4H42.4652C38.4872 64.4 35.2652 67.622 35.2652 71.6H24.4508C22.4708 71.6 21.2 69.9941 21.2 68.0141V53.6H35.2652C35.2652 57.578 38.4872 60.8 42.4652 60.8H78.4652C82.4432 60.8 86 57.578 86 53.6V46.4C86 42.422 82.4432 39.2 78.4652 39.2H42.4652C38.4872 39.2 35.2652 42.422 35.2652 46.4H21.2V28.4H35.2652C35.2652 32.378 38.4872 35.6 42.4652 35.6H78.4652C82.4432 35.6 86 32.378 86 28.4V21.2C86 17.222 82.4432 14 78.4652 14H42.4652C38.4872 14 35.2652 17.222 35.2652 21.2H21.2V14H14V71.5965ZM46.0652 46.4C44.078 46.4 42.4652 48.0128 42.4652 50C42.4652 51.9872 44.078 53.6 46.0652 53.6H49.6652V46.4H46.0652ZM57.2 46.4V53.6H74.8652C76.8524 53.6 78.4652 51.9872 78.4652 50C78.4652 48.0128 76.8524 46.4 74.8652 46.4H57.2ZM46.0652 71.6C44.078 71.6 42.4652 73.2128 42.4652 75.2C42.4652 77.1872 44.078 78.8 46.0652 78.8H49.6652V71.6H46.0652ZM57.2 71.6V78.8H74.8652C76.8524 78.8 78.4652 77.1872 78.4652 75.2C78.4652 73.2128 76.8524 71.6 74.8652 71.6H57.2ZM46.0652 21.2C44.078 21.2 42.4652 22.8128 42.4652 24.8C42.4652 26.7872 44.078 28.4 46.0652 28.4H49.6652V21.2H46.0652ZM57.2 21.2V28.4H74.8652C76.8524 28.4 78.4652 26.7872 78.4652 24.8C78.4652 22.8128 76.8524 21.2 74.8652 21.2H57.2Z" fill="white"/>
</g>
</svg>
