<?xml version="1.0" encoding="UTF-8"?>
<svg id="Layer_2" xmlns="http://www.w3.org/2000/svg" xmlns:xlink="http://www.w3.org/1999/xlink" viewBox="0 0 429.08 60.13">
  <defs>
    <style>
      .cls-1 {
        fill: url(#linear-gradient-4);
      }

      .cls-2 {
        fill: url(#linear-gradient-3);
      }

      .cls-3 {
        fill: url(#linear-gradient-2);
      }

      .cls-4 {
        fill: url(#linear-gradient);
      }

      .cls-5 {
        fill: #fff;
      }
    </style>
    <linearGradient id="linear-gradient" x1="-9.91" y1="20.22" x2="73.27" y2="20.22" gradientUnits="userSpaceOnUse">
      <stop offset="0" stop-color="#00b3de"/>
      <stop offset="1" stop-color="#a8d100"/>
    </linearGradient>
    <linearGradient id="linear-gradient-2" x1="-9.91" y1="23.67" x2="73.27" y2="23.67" xlink:href="#linear-gradient"/>
    <linearGradient id="linear-gradient-3" x1="-9.91" y1="39.66" x2="73.27" y2="39.66" xlink:href="#linear-gradient"/>
    <linearGradient id="linear-gradient-4" x1="-9.91" y1="50.29" x2="73.27" y2="50.29" xlink:href="#linear-gradient"/>
  </defs>
  <g id="Layer_1-2" data-name="Layer_1">
    <g>
      <g>
        <path class="cls-4" d="M13.14,40.44l18.78-22.65c1.06-1.27,2.86-1.65,4.33-.9l6.29,3.2L35.82,1.84c-.83-2.24-3.9-2.5-5.09-.43L13.78,30.85c-.68,1.18-1,2.52-.93,3.88l.29,5.71Z"/>
        <line class="cls-3" x1="49.61" y1="23.69" x2="49.53" y2="23.65"/>
        <path class="cls-2" d="M51.37,51.99l-6.03,3.91,19.31,3.28c2.35.4,4.11-2.12,2.92-4.19l-16.99-29.52c-.68-1.19-1.7-2.15-2.91-2.77l-5.11-2.6,10.22,27.69c.57,1.55,0,3.3-1.4,4.2Z"/>
        <path class="cls-1" d="M45.34,55.89l-28.89-4.97c-1.63-.28-2.85-1.66-2.94-3.31l-.37-7.17L.65,55.5c-1.52,1.84-.22,4.62,2.17,4.62h33.89c1.36,0,2.69-.38,3.84-1.13l4.79-3.1Z"/>
      </g>
      <g>
        <path class="cls-5" d="M96.52,50.05c-2.53,0-4.81-.39-6.82-1.17-2.01-.78-3.72-1.92-5.12-3.44-1.4-1.51-2.47-3.35-3.22-5.53-.75-2.18-1.12-4.68-1.12-7.5s.43-5.33,1.29-7.5c.86-2.18,2.04-4.02,3.53-5.53,1.49-1.51,3.25-2.66,5.26-3.44,2.01-.78,4.17-1.17,6.48-1.17,1.4,0,2.66.11,3.8.32,1.14.21,2.13.45,2.97.71.84.26,1.54.54,2.1.83.55.29.94.5,1.17.63l-1.8,5.02c-.78-.49-1.89-.95-3.34-1.39s-3.01-.66-4.7-.66c-1.46,0-2.83.25-4.09.76-1.27.5-2.36,1.26-3.29,2.27-.93,1.01-1.65,2.27-2.17,3.8-.52,1.53-.78,3.3-.78,5.31,0,1.79.2,3.43.61,4.92.41,1.5,1.03,2.79,1.88,3.87.84,1.09,1.92,1.93,3.22,2.53,1.3.6,2.86.9,4.68.9,2.18,0,3.95-.22,5.31-.66s2.42-.85,3.17-1.24l1.66,5.02c-.39.26-.92.52-1.58.78-.67.26-1.45.51-2.36.75-.91.24-1.93.44-3.07.59-1.14.15-2.36.22-3.65.22Z"/>
        <path class="cls-5" d="M134.73,36.55c0,2.01-.29,3.85-.88,5.51-.59,1.66-1.41,3.07-2.49,4.24-1.07,1.17-2.36,2.08-3.87,2.73-1.51.65-3.18.97-4.99.97s-3.48-.32-4.97-.97c-1.49-.65-2.78-1.56-3.85-2.73-1.07-1.17-1.91-2.58-2.51-4.24-.6-1.66-.9-3.49-.9-5.51s.3-3.84.9-5.48c.6-1.64,1.44-3.04,2.53-4.21,1.09-1.17,2.38-2.07,3.87-2.7s3.13-.95,4.92-.95,3.44.32,4.95.95c1.51.63,2.8,1.53,3.87,2.7s1.91,2.57,2.51,4.21c.6,1.64.9,3.47.9,5.48ZM128.69,36.55c0-2.53-.55-4.54-1.63-6.02-1.09-1.48-2.61-2.22-4.56-2.22s-3.47.74-4.55,2.22c-1.09,1.48-1.63,3.48-1.63,6.02s.54,4.6,1.63,6.09c1.09,1.49,2.61,2.24,4.55,2.24s3.47-.75,4.56-2.24c1.09-1.49,1.63-3.52,1.63-6.09Z"/>
        <path class="cls-5" d="M155.34,35.92c0-2.66-.33-4.59-1-5.77-.67-1.19-1.91-1.78-3.73-1.78-.65,0-1.36.05-2.14.15-.78.1-1.36.18-1.75.24v20.56h-5.9v-24.65c1.14-.32,2.62-.63,4.46-.93,1.83-.29,3.78-.44,5.82-.44,1.75,0,3.19.23,4.31.68,1.12.45,2.06,1.06,2.8,1.8.36-.26.81-.54,1.36-.83.55-.29,1.17-.56,1.85-.8s1.4-.45,2.17-.61,1.53-.24,2.31-.24c1.98,0,3.61.28,4.9.85,1.28.57,2.29,1.36,3.02,2.39.73,1.02,1.23,2.26,1.51,3.7.28,1.45.41,3.03.41,4.75v14.33h-5.9v-13.4c0-2.66-.32-4.59-.97-5.77-.65-1.19-1.9-1.78-3.75-1.78-.94,0-1.83.15-2.68.46s-1.48.61-1.9.9c.26.81.44,1.67.54,2.58.1.91.15,1.88.15,2.92v14.08h-5.9v-13.4Z"/>
        <path class="cls-5" d="M197.49,35.92c0-2.66-.33-4.59-1-5.77-.67-1.19-1.91-1.78-3.73-1.78-.65,0-1.36.05-2.14.15-.78.1-1.36.18-1.75.24v20.56h-5.9v-24.65c1.14-.32,2.62-.63,4.46-.93,1.83-.29,3.78-.44,5.82-.44,1.75,0,3.19.23,4.31.68,1.12.45,2.06,1.06,2.8,1.8.36-.26.81-.54,1.36-.83.55-.29,1.17-.56,1.85-.8s1.4-.45,2.17-.61,1.53-.24,2.31-.24c1.98,0,3.61.28,4.9.85,1.28.57,2.29,1.36,3.02,2.39.73,1.02,1.23,2.26,1.51,3.7.28,1.45.41,3.03.41,4.75v14.33h-5.9v-13.4c0-2.66-.32-4.59-.97-5.77-.65-1.19-1.9-1.78-3.75-1.78-.94,0-1.83.15-2.68.46s-1.48.61-1.9.9c.26.81.44,1.67.54,2.58.1.91.15,1.88.15,2.92v14.08h-5.9v-13.4Z"/>
        <path class="cls-5" d="M223.7,36.7c0-2.24.33-4.21,1-5.9.67-1.69,1.55-3.09,2.66-4.21s2.37-1.96,3.8-2.53c1.43-.57,2.89-.85,4.39-.85,3.51,0,6.24,1.09,8.21,3.27,1.96,2.18,2.95,5.42,2.95,9.74,0,.33,0,.69-.02,1.1-.02.41-.04.77-.07,1.1h-16.81c.16,2.05.88,3.63,2.17,4.75,1.28,1.12,3.14,1.68,5.58,1.68,1.43,0,2.74-.13,3.92-.39,1.19-.26,2.12-.54,2.8-.83l.78,4.82c-.33.16-.77.33-1.34.51-.57.18-1.22.34-1.95.49-.73.15-1.52.27-2.36.37-.85.1-1.71.15-2.58.15-2.24,0-4.19-.33-5.85-1-1.66-.67-3.02-1.59-4.09-2.78-1.07-1.19-1.87-2.58-2.39-4.19-.52-1.61-.78-3.37-.78-5.29ZM240.8,34.07c0-.81-.12-1.58-.34-2.31-.23-.73-.56-1.36-1-1.9-.44-.54-.97-.96-1.61-1.27-.63-.31-1.39-.46-2.27-.46s-1.71.17-2.39.51c-.68.34-1.26.79-1.73,1.34-.47.55-.84,1.19-1.1,1.9-.26.71-.44,1.45-.54,2.19h10.96Z"/>
        <path class="cls-5" d="M267.46,29.15c-.49-.16-1.16-.33-2.02-.51-.86-.18-1.86-.27-3-.27-.65,0-1.34.07-2.07.19-.73.13-1.24.24-1.53.34v20.42h-5.9v-24.27c1.14-.42,2.56-.82,4.26-1.19,1.71-.37,3.6-.56,5.68-.56.39,0,.85.02,1.36.07.52.05,1.04.12,1.56.19.52.08,1.02.18,1.51.29.49.11.88.22,1.17.32l-1.02,4.97Z"/>
        <path class="cls-5" d="M271.16,36.6c0-1.88.29-3.65.88-5.29.58-1.64,1.42-3.06,2.51-4.26,1.09-1.2,2.41-2.14,3.97-2.83,1.56-.68,3.31-1.02,5.26-1.02,2.4,0,4.68.44,6.82,1.32l-1.27,4.82c-.68-.29-1.45-.54-2.31-.73s-1.78-.29-2.75-.29c-2.31,0-4.06.72-5.26,2.17-1.2,1.45-1.8,3.48-1.8,6.12s.57,4.54,1.7,6.02c1.14,1.48,3.05,2.22,5.75,2.22,1.01,0,2-.1,2.97-.29.97-.19,1.82-.44,2.53-.73l.83,4.87c-.65.32-1.63.62-2.95.88-1.32.26-2.67.39-4.07.39-2.18,0-4.07-.33-5.68-1-1.61-.67-2.94-1.59-4-2.78-1.06-1.19-1.84-2.6-2.36-4.24-.52-1.64-.78-3.42-.78-5.34Z"/>
        <path class="cls-5" d="M302.15,16.38c0,1.1-.36,1.98-1.07,2.63-.72.65-1.56.97-2.53.97s-1.87-.32-2.58-.97c-.72-.65-1.07-1.53-1.07-2.63s.36-2.03,1.07-2.68c.71-.65,1.58-.97,2.58-.97s1.82.32,2.53.97c.71.65,1.07,1.54,1.07,2.68ZM301.51,49.32h-5.9v-25.48h5.9v25.48Z"/>
        <path class="cls-5" d="M317.5,23.2c1.95,0,3.59.24,4.92.73,1.33.49,2.39,1.17,3.19,2.05.79.88,1.36,1.94,1.7,3.19.34,1.25.51,2.62.51,4.12v15.45c-.91.19-2.28.43-4.12.71-1.84.28-3.91.42-6.21.42-1.53,0-2.92-.15-4.19-.44-1.27-.29-2.35-.76-3.24-1.41-.89-.65-1.59-1.49-2.1-2.53-.5-1.04-.76-2.32-.76-3.85s.28-2.7.85-3.7c.57-1.01,1.34-1.83,2.31-2.46.97-.63,2.1-1.09,3.39-1.36s2.62-.41,4.02-.41c.65,0,1.33.04,2.05.12s1.48.22,2.29.41v-.97c0-.68-.08-1.33-.24-1.95-.16-.62-.45-1.16-.85-1.63-.41-.47-.94-.84-1.61-1.1-.67-.26-1.5-.39-2.51-.39-1.36,0-2.61.1-3.75.29-1.14.19-2.06.42-2.78.68l-.73-4.78c.75-.26,1.83-.52,3.26-.78,1.43-.26,2.96-.39,4.58-.39ZM317.98,45.18c1.82,0,3.2-.1,4.14-.29v-6.53c-.32-.1-.8-.19-1.41-.29s-1.3-.15-2.05-.15c-.65,0-1.31.05-1.97.15s-1.27.28-1.8.54c-.54.26-.97.63-1.29,1.1-.32.47-.49,1.06-.49,1.78,0,1.4.44,2.36,1.32,2.9s2.06.8,3.56.8Z"/>
        <path class="cls-5" d="M343.91,49.8c-1.75-.03-3.21-.23-4.36-.59-1.15-.36-2.07-.87-2.75-1.53-.68-.67-1.16-1.49-1.44-2.49-.28-.99-.41-2.12-.41-3.39V12.48l5.9-.97v29.19c0,.72.06,1.32.17,1.8.11.49.32.9.61,1.24.29.34.69.6,1.19.78.5.18,1.15.32,1.92.41l-.83,4.87Z"/>
        <path class="cls-5" d="M356.09,16.38c0,1.1-.36,1.98-1.07,2.63-.72.65-1.56.97-2.53.97s-1.87-.32-2.58-.97c-.72-.65-1.07-1.53-1.07-2.63s.36-2.03,1.07-2.68c.71-.65,1.58-.97,2.58-.97s1.82.32,2.53.97c.71.65,1.07,1.54,1.07,2.68ZM355.45,49.32h-5.9v-25.48h5.9v25.48Z"/>
        <path class="cls-5" d="M380.79,27.98c-.65.68-1.5,1.64-2.56,2.87-1.06,1.23-2.19,2.61-3.39,4.12-1.2,1.51-2.41,3.09-3.63,4.73-1.22,1.64-2.31,3.21-3.29,4.7h13.16v4.92h-20.27v-3.65c.71-1.3,1.61-2.71,2.68-4.24,1.07-1.53,2.18-3.06,3.31-4.6s2.27-3.01,3.39-4.41c1.12-1.4,2.12-2.61,3-3.65h-11.74v-4.92h19.34v4.14Z"/>
        <path class="cls-5" d="M384.3,36.7c0-2.24.33-4.21,1-5.9.67-1.69,1.55-3.09,2.66-4.21s2.37-1.96,3.8-2.53c1.43-.57,2.89-.85,4.39-.85,3.51,0,6.24,1.09,8.21,3.27,1.96,2.18,2.95,5.42,2.95,9.74,0,.33,0,.69-.02,1.1-.02.41-.04.77-.07,1.1h-16.81c.16,2.05.88,3.63,2.17,4.75,1.28,1.12,3.14,1.68,5.58,1.68,1.43,0,2.74-.13,3.92-.39,1.19-.26,2.12-.54,2.8-.83l.78,4.82c-.33.16-.77.33-1.34.51-.57.18-1.22.34-1.95.49-.73.15-1.52.27-2.36.37-.85.1-1.71.15-2.58.15-2.24,0-4.19-.33-5.85-1-1.66-.67-3.02-1.59-4.09-2.78-1.07-1.19-1.87-2.58-2.39-4.19-.52-1.61-.78-3.37-.78-5.29ZM401.4,34.07c0-.81-.12-1.58-.34-2.31-.23-.73-.56-1.36-1-1.9-.44-.54-.97-.96-1.61-1.27-.63-.31-1.39-.46-2.27-.46s-1.71.17-2.39.51c-.68.34-1.26.79-1.73,1.34-.47.55-.84,1.19-1.1,1.9-.26.71-.44,1.45-.54,2.19h10.96Z"/>
        <path class="cls-5" d="M428.05,29.15c-.49-.16-1.16-.33-2.02-.51-.86-.18-1.86-.27-3-.27-.65,0-1.34.07-2.07.19-.73.13-1.24.24-1.53.34v20.42h-5.9v-24.27c1.14-.42,2.56-.82,4.26-1.19,1.71-.37,3.6-.56,5.68-.56.39,0,.85.02,1.36.07.52.05,1.04.12,1.56.19.52.08,1.02.18,1.51.29.49.11.88.22,1.17.32l-1.02,4.97Z"/>
      </g>
    </g>
  </g>
</svg>