<svg xmlns="http://www.w3.org/2000/svg" xmlns:xlink="http://www.w3.org/1999/xlink" version="1.1" id="Layer_1" x="0px" y="0px" style="enable-background:new 0 0 283.46 141.73;" xml:space="preserve" viewBox="60.84 22.73 151.96 109.47">
<style type="text/css">
	.st0{clip-path:url(#SVGID_2_);fill:url(#SVGID_3_);}
	.st1{clip-path:url(#SVGID_5_);fill:url(#SVGID_6_);}
	.st2{clip-path:url(#SVGID_8_);fill:url(#SVGID_9_);}
	.st3{clip-path:url(#SVGID_11_);fill:url(#SVGID_12_);}
	.st4{clip-path:url(#SVGID_14_);fill:url(#SVGID_15_);}
	.st5{fill:#E6E7E8;}
	.st6{fill:#414042;}
</style>
<g>
	<defs>
		<path id="SVGID_1_" d="M71.86,117.66c-6.09,0-11.02,4.93-11.02,11.02v3.52h140.94c6.09,0,11.02-4.93,11.02-11.02v-3.52H71.86z"/>
	</defs>
	<clipPath id="SVGID_2_">
		<use xlink:href="#SVGID_1_" style="overflow:visible;"/>
	</clipPath>
	
		<linearGradient id="SVGID_3_" gradientUnits="userSpaceOnUse" x1="-1.832558e-06" y1="141.6848" x2="1" y2="141.6848" gradientTransform="matrix(151.9585 0 0 -151.9585 60.8363 21655.1406)">
		<stop offset="0" style="stop-color:#7D0E3C"/>
		<stop offset="1" style="stop-color:#A6214F"/>
	</linearGradient>
	<rect x="60.84" y="117.66" class="st0" width="151.96" height="14.54"/>
</g>
<g>
	<defs>
		<path id="SVGID_4_" d="M165.31,25.84l-15.15,15.15l-15.79-15.79c-1.8-1.8-4.71-1.8-6.5,0c-1.8,1.79-1.8,4.71,0,6.5l16.65,16.65    c3.11,3.11,8.17,3.11,11.27,0l15.15-15.15l27.31,27.31l-27.31,27.32l-62-62c-3.11-3.11-8.17-3.11-11.27,0L68.62,54.89    c-3.11,3.11-3.11,8.17,0,11.27l29.05,29.05c1.55,1.55,3.6,2.33,5.64,2.33c2.04,0,4.08-0.78,5.64-2.33l15.3-15.3l15.63,15.63    c1.8,1.8,4.71,1.8,6.5,0c1.8-1.79,1.8-4.71,0-6.5l-16.5-16.5c-3.11-3.11-8.17-3.11-11.27,0l-15.31,15.3L76,60.53l27.31-27.31    l62,62c3.11,3.11,8.17,3.11,11.27,0l29.05-29.05c3.11-3.11,3.11-8.17,0-11.27l-29.05-29.05c-1.55-1.55-3.6-2.33-5.64-2.33    C168.91,23.51,166.87,24.29,165.31,25.84"/>
	</defs>
	<clipPath id="SVGID_5_">
		<use xlink:href="#SVGID_4_" style="overflow:visible;"/>
	</clipPath>
	
		<linearGradient id="SVGID_6_" gradientUnits="userSpaceOnUse" x1="0" y1="141.6814" x2="1" y2="141.6814" gradientTransform="matrix(141.672 0 0 -141.672 66.2926 20132.8105)">
		<stop offset="0" style="stop-color:#7D0E3C"/>
		<stop offset="1" style="stop-color:#A6214F"/>
	</linearGradient>
	<rect x="65.52" y="22.73" class="st1" width="143.23" height="75.59"/>
</g>
<g>
	<defs>
		<path id="SVGID_7_" d="M200.04,36.09c-0.9,0.9-1.42,2.15-1.42,3.43c0,1.27,0.52,2.52,1.42,3.42c0.9,0.9,2.15,1.42,3.43,1.42    c1.28,0,2.52-0.52,3.43-1.42c0.9-0.9,1.42-2.15,1.42-3.42c0-1.28-0.52-2.53-1.42-3.43c-0.9-0.9-2.15-1.42-3.43-1.42    C202.18,34.68,200.94,35.19,200.04,36.09"/>
	</defs>
	<clipPath id="SVGID_8_">
		<use xlink:href="#SVGID_7_" style="overflow:visible;"/>
	</clipPath>
	
		<linearGradient id="SVGID_9_" gradientUnits="userSpaceOnUse" x1="-7.875873e-06" y1="140.992" x2="1" y2="140.992" gradientTransform="matrix(9.687 0 0 -9.687 198.6171 1405.3162)">
		<stop offset="0" style="stop-color:#7D0E3C"/>
		<stop offset="1" style="stop-color:#A6214F"/>
	</linearGradient>
	<rect x="198.62" y="34.68" class="st2" width="9.69" height="9.69"/>
</g>
<g>
	<defs>
		<path id="SVGID_10_" d="M190.86,26.92c-0.85,0.86-1.35,2.04-1.35,3.25c0,1.21,0.49,2.4,1.35,3.25c0.86,0.85,2.04,1.35,3.25,1.35    c1.21,0,2.4-0.49,3.25-1.35c0.86-0.86,1.35-2.04,1.35-3.25c0-1.21-0.49-2.39-1.35-3.25c-0.86-0.85-2.04-1.35-3.25-1.35    C192.9,25.57,191.71,26.06,190.86,26.92"/>
	</defs>
	<clipPath id="SVGID_11_">
		<use xlink:href="#SVGID_10_" style="overflow:visible;"/>
	</clipPath>
	
		<linearGradient id="SVGID_12_" gradientUnits="userSpaceOnUse" x1="3.483722e-05" y1="140.9527" x2="1" y2="140.9527" gradientTransform="matrix(9.1981 0 0 -9.1981 189.5127 1326.658)">
		<stop offset="0" style="stop-color:#7D0E3C"/>
		<stop offset="1" style="stop-color:#A6214F"/>
	</linearGradient>
	<rect x="189.51" y="25.57" class="st3" width="9.2" height="9.2"/>
</g>
<g>
	<defs>
		<path id="SVGID_13_" d="M97.46,50.94v4.99h-4.99c-2.54,0-4.6,2.06-4.6,4.6s2.06,4.6,4.6,4.6h4.99v5c0,2.54,2.06,4.6,4.6,4.6    c2.54,0,4.6-2.06,4.6-4.6v-5h5c2.54,0,4.6-2.06,4.6-4.6s-2.06-4.6-4.6-4.6h-5v-4.99c0-2.54-2.06-4.6-4.6-4.6    C99.53,46.34,97.46,48.4,97.46,50.94"/>
	</defs>
	<clipPath id="SVGID_14_">
		<use xlink:href="#SVGID_13_" style="overflow:visible;"/>
	</clipPath>
	
		<linearGradient id="SVGID_15_" gradientUnits="userSpaceOnUse" x1="1.854513e-05" y1="141.4795" x2="1" y2="141.4795" gradientTransform="matrix(28.3863 0 0 -28.3863 87.8715 4076.6128)">
		<stop offset="0" style="stop-color:#7D0E3C"/>
		<stop offset="1" style="stop-color:#A6214F"/>
	</linearGradient>
	<rect x="87.87" y="46.34" class="st4" width="28.39" height="28.39"/>
</g>
<g>
	<path class="st5" d="M71.23,126.29c0.09,0,0.17,0.02,0.22,0.05c0.05,0.03,0.09,0.1,0.12,0.2c0.03,0.1,0.04,0.24,0.04,0.43   c0,0.18-0.01,0.32-0.03,0.41s-0.06,0.16-0.11,0.19s-0.13,0.05-0.23,0.05h-4.84v-2.43c0-0.6,0.14-1.04,0.43-1.34   s0.73-0.45,1.33-0.45h2.46v2.89H71.23z M67.9,121.15c0.13,0,0.24,0.03,0.35,0.1s0.19,0.15,0.25,0.26c0.06,0.11,0.09,0.23,0.09,0.36   c0,0.12-0.03,0.23-0.09,0.34s-0.15,0.19-0.25,0.26c-0.11,0.07-0.22,0.1-0.35,0.1s-0.24-0.03-0.35-0.1   c-0.11-0.07-0.2-0.15-0.26-0.26s-0.1-0.22-0.1-0.34c0-0.13,0.03-0.25,0.1-0.36c0.06-0.11,0.15-0.2,0.26-0.26   C67.66,121.18,67.77,121.15,67.9,121.15z M68.55,124.75c-0.26,0-0.44,0.05-0.56,0.14c-0.11,0.09-0.17,0.25-0.17,0.47v0.94h1.35   v-1.55H68.55z M69.57,121.15c0.12,0,0.23,0.03,0.34,0.1s0.19,0.15,0.26,0.26c0.06,0.11,0.09,0.23,0.09,0.36   c0,0.12-0.03,0.23-0.1,0.34s-0.15,0.19-0.26,0.26c-0.11,0.07-0.22,0.1-0.34,0.1c-0.13,0-0.25-0.03-0.37-0.1   c-0.11-0.07-0.2-0.15-0.27-0.26c-0.07-0.11-0.1-0.22-0.1-0.34c0-0.13,0.03-0.25,0.1-0.36c0.07-0.11,0.16-0.2,0.27-0.26   C69.31,121.18,69.43,121.15,69.57,121.15z"/>
	<path class="st5" d="M74.82,126.29c0.1,0,0.17,0.02,0.22,0.05c0.05,0.03,0.09,0.1,0.12,0.2c0.02,0.1,0.04,0.24,0.04,0.44   c0,0.18-0.01,0.32-0.03,0.41s-0.06,0.16-0.12,0.19s-0.13,0.05-0.23,0.05h-3.58c-0.1,0-0.18-0.02-0.23-0.05   c-0.05-0.04-0.09-0.1-0.11-0.19c-0.02-0.09-0.03-0.23-0.03-0.41c0-0.19,0.01-0.33,0.04-0.43c0.03-0.1,0.06-0.16,0.12-0.2   c0.05-0.03,0.13-0.05,0.22-0.05h1.38v-2.89h1.43v2.89H74.82z M72.43,128.16c0.13,0,0.24,0.03,0.35,0.1s0.19,0.15,0.25,0.26   c0.06,0.11,0.09,0.23,0.09,0.36c0,0.12-0.03,0.24-0.09,0.34s-0.15,0.19-0.25,0.26c-0.11,0.06-0.22,0.1-0.35,0.1   s-0.24-0.03-0.35-0.1c-0.11-0.07-0.2-0.15-0.26-0.26s-0.1-0.22-0.1-0.34c0-0.13,0.03-0.25,0.1-0.36c0.06-0.11,0.15-0.2,0.26-0.26   C72.19,128.19,72.3,128.16,72.43,128.16z M74.1,128.16c0.12,0,0.24,0.03,0.34,0.1s0.19,0.15,0.25,0.26   c0.06,0.11,0.09,0.23,0.09,0.36c0,0.12-0.03,0.23-0.1,0.34s-0.15,0.2-0.26,0.26c-0.11,0.06-0.22,0.1-0.34,0.1   c-0.13,0-0.25-0.03-0.37-0.1c-0.11-0.07-0.2-0.15-0.27-0.26s-0.1-0.22-0.1-0.34c0-0.13,0.03-0.25,0.1-0.36   c0.07-0.11,0.16-0.2,0.27-0.26C73.84,128.19,73.97,128.16,74.1,128.16z"/>
	<path class="st5" d="M74.82,127.63c-0.1,0-0.18-0.02-0.23-0.05c-0.05-0.04-0.09-0.1-0.11-0.19c-0.02-0.09-0.03-0.23-0.03-0.41   c0-0.19,0.01-0.33,0.04-0.43c0.03-0.1,0.06-0.16,0.12-0.2c0.05-0.03,0.13-0.05,0.22-0.05h1.1v-2.89h1.43v4.23H74.82z M76.63,121.14   c0.13,0,0.24,0.03,0.35,0.1s0.19,0.15,0.26,0.27c0.06,0.11,0.09,0.23,0.09,0.37c0,0.12-0.03,0.23-0.09,0.33   c-0.06,0.11-0.15,0.19-0.26,0.26s-0.22,0.1-0.35,0.1s-0.24-0.03-0.35-0.1s-0.2-0.15-0.26-0.26c-0.06-0.11-0.1-0.22-0.1-0.33   c0-0.13,0.03-0.25,0.1-0.37c0.06-0.11,0.15-0.2,0.26-0.27S76.51,121.14,76.63,121.14z"/>
	<path class="st5" d="M80.66,128.34c0.18,0,0.32-0.02,0.4-0.06c0.08-0.04,0.14-0.1,0.16-0.2c0.03-0.09,0.04-0.25,0.04-0.45H78.5   v-2.43c0-0.6,0.14-1.04,0.43-1.34s0.73-0.45,1.33-0.45h2.46v3.84c0,0.55-0.04,0.99-0.13,1.33c-0.09,0.34-0.28,0.61-0.57,0.81   s-0.71,0.29-1.28,0.29H79.2v-1.34H80.66z M81.28,124.75h-0.62c-0.26,0-0.45,0.05-0.56,0.14c-0.11,0.09-0.17,0.25-0.17,0.47v0.94   h1.35V124.75z"/>
	<path class="st5" d="M86.44,126.29c0.1,0,0.17,0.02,0.22,0.05c0.05,0.03,0.09,0.1,0.12,0.2c0.02,0.1,0.04,0.24,0.04,0.44   c0,0.18-0.01,0.32-0.03,0.41s-0.06,0.16-0.11,0.19s-0.13,0.05-0.23,0.05h-0.61c0.01,0.64-0.15,1.13-0.46,1.5   c-0.31,0.36-0.79,0.55-1.43,0.55h-0.62v-1.38h0.47c0.21,0,0.37-0.07,0.46-0.21c0.1-0.14,0.14-0.31,0.14-0.49v-4.19h1.44v2.89H86.44   z"/>
	<path class="st5" d="M90.03,126.29c0.1,0,0.17,0.02,0.22,0.05c0.05,0.03,0.09,0.1,0.12,0.2c0.02,0.1,0.04,0.24,0.04,0.44   c0,0.18-0.01,0.32-0.03,0.41s-0.06,0.16-0.12,0.19s-0.13,0.05-0.23,0.05h-3.58c-0.1,0-0.18-0.02-0.23-0.05   c-0.05-0.04-0.09-0.1-0.11-0.19c-0.02-0.09-0.03-0.23-0.03-0.41c0-0.19,0.01-0.33,0.04-0.43c0.03-0.1,0.06-0.16,0.12-0.2   c0.05-0.03,0.13-0.05,0.22-0.05h1.38v-2.89h1.43v2.89H90.03z M87.82,121.15c0.13,0,0.24,0.03,0.35,0.1s0.19,0.15,0.25,0.26   c0.06,0.11,0.09,0.23,0.09,0.36c0,0.12-0.03,0.23-0.09,0.34c-0.06,0.11-0.15,0.19-0.25,0.26c-0.11,0.07-0.22,0.1-0.35,0.1   s-0.24-0.03-0.35-0.1c-0.11-0.07-0.2-0.15-0.26-0.26s-0.1-0.22-0.1-0.34c0-0.13,0.03-0.25,0.1-0.36c0.06-0.11,0.15-0.2,0.26-0.26   C87.58,121.18,87.69,121.15,87.82,121.15z M89.49,121.15c0.12,0,0.23,0.03,0.34,0.1s0.19,0.15,0.26,0.26   c0.06,0.11,0.09,0.23,0.09,0.36c0,0.12-0.03,0.23-0.1,0.34s-0.15,0.19-0.26,0.26c-0.11,0.07-0.22,0.1-0.34,0.1   c-0.13,0-0.25-0.03-0.37-0.1c-0.11-0.07-0.2-0.15-0.27-0.26c-0.07-0.11-0.1-0.22-0.1-0.34c0-0.13,0.03-0.25,0.1-0.36   c0.07-0.11,0.16-0.2,0.27-0.26C89.23,121.18,89.36,121.15,89.49,121.15z"/>
	<path class="st5" d="M92.19,123.41h2.39c0.61,0,1.07,0.16,1.36,0.47c0.29,0.32,0.44,0.78,0.44,1.39v1.03h0.64   c0.1,0,0.17,0.02,0.22,0.05c0.05,0.03,0.09,0.1,0.12,0.2c0.02,0.1,0.04,0.24,0.04,0.44c0,0.18-0.01,0.32-0.03,0.41   s-0.06,0.16-0.11,0.19s-0.13,0.05-0.23,0.05h-6.99c-0.1,0-0.18-0.02-0.23-0.05c-0.05-0.04-0.09-0.1-0.11-0.19   c-0.02-0.09-0.03-0.23-0.03-0.41c0-0.19,0.01-0.33,0.04-0.43c0.03-0.1,0.06-0.16,0.12-0.2c0.05-0.03,0.13-0.05,0.22-0.05h4.92   v-0.85c0-0.26-0.06-0.44-0.17-0.54s-0.31-0.16-0.57-0.16h-3.8v-0.64c0-0.27,0.03-0.49,0.08-0.67s0.15-0.35,0.3-0.51   c0.15-0.16,0.36-0.34,0.65-0.53l3.37-2.26v1.57L92.19,123.41z"/>
	<path class="st5" d="M97.02,127.63c-0.1,0-0.18-0.02-0.23-0.05c-0.05-0.04-0.09-0.1-0.11-0.19c-0.02-0.09-0.03-0.23-0.03-0.41   c0-0.19,0.01-0.33,0.04-0.43c0.03-0.1,0.06-0.16,0.12-0.2c0.05-0.03,0.13-0.05,0.22-0.05h1.09v-4.95h1.44v6.29H97.02z"/>
	<path class="st5" d="M105.67,125.86c0,0.36-0.07,0.67-0.21,0.93c-0.14,0.27-0.34,0.47-0.6,0.62c-0.26,0.15-0.58,0.22-0.94,0.22   h-3.55v-1.34h3.53c0.22,0,0.33-0.13,0.33-0.4v-4.56h1.43V125.86z M102.57,129.28c-0.1,0-0.17,0.01-0.21,0.04s-0.06,0.08-0.06,0.17   v0.49h1.02v0.63h-2.13v-0.63h0.44v-0.51c0-0.29,0.07-0.51,0.21-0.64s0.37-0.19,0.69-0.19h0.66v0.64H102.57z M101.62,125.67v-3.56   h1.44v3.56H101.62z"/>
	<path class="st5" d="M106.84,127.63v-6.29h1.44v6.29H106.84z"/>
	<path class="st5" d="M113,127.63c-0.62,0-1.07-0.16-1.36-0.47c-0.29-0.32-0.44-0.78-0.44-1.38v-1.45h1.42v1.27   c0,0.25,0.06,0.43,0.17,0.54c0.12,0.1,0.31,0.16,0.57,0.16h3.45v-2.89h1.42v4.23H113z M114.04,121.77c0.13,0,0.24,0.03,0.35,0.1   s0.19,0.15,0.25,0.26c0.06,0.11,0.09,0.23,0.09,0.36c0,0.12-0.03,0.23-0.09,0.34s-0.15,0.19-0.25,0.26   c-0.11,0.07-0.22,0.1-0.35,0.1s-0.24-0.03-0.35-0.1c-0.11-0.07-0.2-0.15-0.26-0.26s-0.1-0.22-0.1-0.34c0-0.13,0.03-0.25,0.1-0.36   s0.15-0.2,0.26-0.26C113.79,121.8,113.91,121.77,114.04,121.77z M115.7,121.77c0.12,0,0.23,0.03,0.34,0.1s0.19,0.15,0.26,0.26   s0.09,0.23,0.09,0.36c0,0.12-0.03,0.23-0.1,0.34s-0.15,0.19-0.26,0.26c-0.11,0.07-0.22,0.1-0.34,0.1c-0.13,0-0.25-0.03-0.37-0.1   c-0.11-0.07-0.2-0.15-0.27-0.26c-0.07-0.11-0.1-0.22-0.1-0.34c0-0.13,0.03-0.25,0.1-0.36s0.16-0.2,0.27-0.26   C115.45,121.8,115.57,121.77,115.7,121.77z"/>
	<path class="st5" d="M120.85,125.65c0,0.23,0.05,0.4,0.15,0.5c0.1,0.1,0.27,0.15,0.52,0.15h0.08c0.09,0,0.17,0.02,0.22,0.05   c0.05,0.03,0.09,0.1,0.12,0.2c0.03,0.1,0.04,0.24,0.04,0.43c0,0.18-0.01,0.32-0.03,0.41s-0.06,0.16-0.12,0.19s-0.13,0.05-0.23,0.05   h-0.04c-0.51,0-0.92-0.06-1.24-0.19s-0.54-0.33-0.69-0.62c-0.15-0.29-0.22-0.68-0.22-1.17v-4.31h1.44V125.65z"/>
	<path class="st5" d="M127.39,123.41c1.2,0,1.81,0.62,1.81,1.86v2.37h-7.59c-0.1,0-0.18-0.02-0.23-0.05   c-0.05-0.04-0.09-0.1-0.11-0.19c-0.02-0.09-0.03-0.23-0.03-0.41c0-0.19,0.01-0.33,0.04-0.43c0.03-0.1,0.06-0.16,0.12-0.2   c0.05-0.03,0.13-0.05,0.22-0.05h0.72v-2.89H127.39z M123.76,126.29h4v-0.85c0-0.26-0.06-0.44-0.17-0.54   c-0.11-0.1-0.3-0.16-0.57-0.16h-3.26V126.29z M125.59,121.14c0.13,0,0.24,0.03,0.35,0.1s0.19,0.15,0.26,0.27   c0.06,0.11,0.09,0.23,0.09,0.37c0,0.12-0.03,0.23-0.09,0.33c-0.06,0.11-0.15,0.19-0.26,0.26s-0.22,0.1-0.35,0.1   s-0.24-0.03-0.35-0.1s-0.2-0.15-0.26-0.26c-0.06-0.11-0.1-0.22-0.1-0.33c0-0.13,0.03-0.25,0.1-0.37c0.06-0.11,0.15-0.2,0.26-0.27   S125.46,121.14,125.59,121.14z"/>
	<path class="st5" d="M131.6,125.65c0,0.23,0.05,0.4,0.15,0.5c0.1,0.1,0.27,0.15,0.52,0.15h0.08c0.09,0,0.17,0.02,0.22,0.05   c0.05,0.03,0.09,0.1,0.12,0.2c0.03,0.1,0.04,0.24,0.04,0.43c0,0.18-0.01,0.32-0.03,0.41s-0.06,0.16-0.12,0.19s-0.13,0.05-0.23,0.05   h-0.04c-0.51,0-0.92-0.06-1.24-0.19s-0.54-0.33-0.69-0.62c-0.15-0.29-0.22-0.68-0.22-1.17v-4.31h1.44V125.65z"/>
	<path class="st5" d="M132.35,127.63c-0.1,0-0.18-0.02-0.23-0.05c-0.05-0.04-0.09-0.1-0.11-0.19c-0.02-0.09-0.03-0.23-0.03-0.41   c0-0.19,0.01-0.33,0.04-0.43c0.03-0.1,0.06-0.16,0.12-0.2c0.05-0.03,0.13-0.05,0.22-0.05h1.51v-2.89h1.42v4.23H132.35z    M133.28,128.16c0.13,0,0.24,0.03,0.35,0.1s0.19,0.15,0.25,0.26c0.06,0.11,0.09,0.23,0.09,0.36c0,0.12-0.03,0.24-0.09,0.34   s-0.15,0.19-0.25,0.26c-0.11,0.06-0.22,0.1-0.35,0.1c-0.13,0-0.24-0.03-0.35-0.1c-0.11-0.07-0.2-0.15-0.26-0.26s-0.1-0.22-0.1-0.34   c0-0.13,0.03-0.25,0.1-0.36c0.06-0.11,0.15-0.2,0.26-0.26S133.16,128.16,133.28,128.16z M134.95,128.16c0.12,0,0.24,0.03,0.34,0.1   s0.19,0.15,0.25,0.26c0.06,0.11,0.09,0.23,0.09,0.36c0,0.12-0.03,0.23-0.1,0.34s-0.15,0.2-0.26,0.26c-0.11,0.06-0.22,0.1-0.34,0.1   c-0.13,0-0.25-0.03-0.37-0.1c-0.11-0.07-0.2-0.15-0.27-0.26s-0.1-0.22-0.1-0.34c0-0.13,0.03-0.25,0.1-0.36   c0.07-0.11,0.16-0.2,0.27-0.26S134.82,128.16,134.95,128.16z"/>
	<path class="st5" d="M139.37,126.29c0.1,0,0.17,0.02,0.22,0.05c0.05,0.03,0.09,0.1,0.12,0.2c0.02,0.1,0.04,0.24,0.04,0.44   c0,0.18-0.01,0.32-0.03,0.41s-0.06,0.16-0.11,0.19s-0.13,0.05-0.23,0.05h-0.61c0.01,0.64-0.15,1.13-0.46,1.5   c-0.31,0.36-0.79,0.55-1.43,0.55h-0.62v-1.38h0.47c0.21,0,0.37-0.07,0.46-0.21c0.1-0.14,0.14-0.31,0.14-0.49v-4.19h1.44v2.89   H139.37z"/>
	<path class="st5" d="M142.49,126.29c0.09,0,0.17,0.02,0.22,0.05c0.05,0.03,0.09,0.1,0.12,0.2c0.03,0.1,0.04,0.24,0.04,0.43   c0,0.18-0.01,0.32-0.04,0.41s-0.06,0.16-0.12,0.19c-0.05,0.04-0.13,0.05-0.23,0.05h-3.11c-0.1,0-0.18-0.02-0.23-0.05   c-0.05-0.04-0.09-0.1-0.11-0.19c-0.02-0.09-0.03-0.23-0.03-0.41c0-0.19,0.01-0.33,0.04-0.43c0.03-0.1,0.06-0.16,0.12-0.2   c0.05-0.03,0.13-0.05,0.22-0.05h1.09v-4.95h1.44v4.95H142.49z"/>
	<path class="st5" d="M142.49,127.63c-0.1,0-0.18-0.02-0.23-0.05s-0.09-0.1-0.11-0.19s-0.04-0.23-0.04-0.41   c0-0.19,0.01-0.33,0.04-0.43c0.03-0.1,0.07-0.16,0.12-0.2c0.05-0.03,0.13-0.05,0.22-0.05h1.09v-4.95h1.44v6.29H142.49z"/>
	<path class="st5" d="M154.84,127.63v-2.89h-0.47c-0.26,0-0.45,0.05-0.56,0.16c-0.11,0.1-0.17,0.29-0.17,0.54v1.6   c0,0.86-0.25,1.51-0.73,1.96c-0.49,0.45-1.2,0.67-2.13,0.67c-0.59,0-1.11-0.1-1.53-0.3c-0.43-0.2-0.75-0.49-0.98-0.88   c-0.22-0.39-0.34-0.86-0.34-1.41v-2.39h1.44v1.77c0,0.38,0.04,0.7,0.11,0.97c0.07,0.27,0.21,0.49,0.41,0.65   c0.21,0.17,0.5,0.25,0.88,0.25c0.38,0,0.67-0.08,0.88-0.24c0.21-0.16,0.35-0.37,0.42-0.65c0.07-0.27,0.11-0.6,0.11-0.99v-1.19   c0-1.24,0.6-1.86,1.81-1.86h2.28v4.23H154.84z M149.93,129.96c0.13,0,0.24,0.03,0.35,0.1s0.19,0.15,0.25,0.26   c0.06,0.11,0.09,0.23,0.09,0.36c0,0.12-0.03,0.24-0.09,0.35c-0.06,0.11-0.15,0.19-0.25,0.26c-0.11,0.06-0.22,0.1-0.35,0.1   s-0.24-0.03-0.35-0.1s-0.2-0.15-0.26-0.26c-0.06-0.11-0.1-0.22-0.1-0.34c0-0.13,0.03-0.25,0.1-0.36c0.06-0.11,0.15-0.2,0.26-0.26   S149.8,129.96,149.93,129.96z M151.6,129.96c0.12,0,0.24,0.03,0.34,0.1c0.11,0.06,0.19,0.15,0.25,0.26   c0.06,0.11,0.09,0.23,0.09,0.36c0,0.12-0.03,0.23-0.1,0.34c-0.06,0.11-0.15,0.2-0.26,0.26c-0.11,0.06-0.22,0.1-0.34,0.1   c-0.13,0-0.25-0.03-0.37-0.1c-0.11-0.06-0.2-0.15-0.27-0.26c-0.07-0.11-0.1-0.22-0.1-0.35c0-0.13,0.03-0.25,0.1-0.36   c0.07-0.11,0.16-0.2,0.27-0.26C151.34,130,151.46,129.96,151.6,129.96z"/>
	<path class="st5" d="M159.92,126.29c0.1,0,0.17,0.02,0.22,0.05c0.05,0.03,0.09,0.1,0.12,0.2s0.04,0.24,0.04,0.44   c0,0.18-0.01,0.32-0.03,0.41s-0.06,0.16-0.11,0.19c-0.05,0.04-0.13,0.05-0.23,0.05h-0.61c0.01,0.64-0.15,1.13-0.46,1.5   c-0.31,0.36-0.79,0.55-1.43,0.55h-0.62v-1.38h0.47c0.21,0,0.37-0.07,0.46-0.21c0.09-0.14,0.14-0.31,0.14-0.49v-4.19h1.44v2.89   H159.92z"/>
	<path class="st5" d="M165.76,123.41c1.2,0,1.8,0.62,1.8,1.86v1.03h0.62c0.09,0,0.17,0.02,0.22,0.05c0.05,0.03,0.09,0.1,0.12,0.2   c0.03,0.1,0.04,0.24,0.04,0.43c0,0.18-0.01,0.32-0.03,0.41s-0.06,0.16-0.11,0.19s-0.13,0.05-0.23,0.05h-8.26   c-0.1,0-0.18-0.02-0.23-0.05c-0.05-0.04-0.09-0.1-0.11-0.19c-0.02-0.09-0.04-0.23-0.04-0.41c0-0.19,0.01-0.33,0.04-0.43   c0.03-0.1,0.07-0.16,0.12-0.2c0.05-0.03,0.13-0.05,0.22-0.05h0.72v-4.95h1.44v2.06H165.76z M162.08,126.29h4.04v-0.85   c0-0.25-0.06-0.44-0.17-0.54s-0.3-0.16-0.56-0.16h-3.3V126.29z"/>
	<path class="st5" d="M173.86,126.29c0.1,0,0.17,0.02,0.22,0.05c0.05,0.03,0.09,0.1,0.12,0.2c0.03,0.1,0.04,0.24,0.04,0.43   c0,0.18-0.01,0.32-0.03,0.41c-0.02,0.09-0.06,0.16-0.11,0.19s-0.13,0.05-0.23,0.05h-5.68c-0.1,0-0.18-0.02-0.23-0.05   c-0.05-0.04-0.09-0.1-0.11-0.19c-0.02-0.09-0.04-0.23-0.04-0.41c0-0.19,0.01-0.33,0.04-0.43c0.03-0.1,0.07-0.16,0.12-0.2   c0.05-0.03,0.13-0.05,0.22-0.05h0.84v-1.09c0-0.6,0.14-1.04,0.43-1.34s0.73-0.45,1.33-0.45h2.46v2.89H173.86z M170.3,121.15   c0.13,0,0.24,0.03,0.35,0.1s0.19,0.15,0.25,0.26c0.06,0.11,0.09,0.23,0.09,0.36c0,0.12-0.03,0.23-0.09,0.34   c-0.06,0.11-0.15,0.19-0.25,0.26c-0.11,0.07-0.22,0.1-0.35,0.1s-0.24-0.03-0.35-0.1c-0.11-0.07-0.2-0.15-0.26-0.26   s-0.1-0.22-0.1-0.34c0-0.13,0.03-0.25,0.1-0.36c0.06-0.11,0.15-0.2,0.26-0.26C170.05,121.18,170.17,121.15,170.3,121.15z    M171.17,124.75c-0.26,0-0.44,0.05-0.55,0.14c-0.11,0.09-0.17,0.25-0.17,0.47v0.94h1.34v-1.55H171.17z M171.96,121.15   c0.12,0,0.23,0.03,0.34,0.1s0.19,0.15,0.26,0.26c0.06,0.11,0.09,0.23,0.09,0.36c0,0.12-0.03,0.23-0.1,0.34s-0.15,0.19-0.26,0.26   c-0.11,0.07-0.22,0.1-0.34,0.1c-0.13,0-0.25-0.03-0.37-0.1c-0.11-0.07-0.2-0.15-0.27-0.26s-0.1-0.22-0.1-0.34   c0-0.13,0.03-0.25,0.1-0.36c0.07-0.11,0.16-0.2,0.27-0.26S171.83,121.15,171.96,121.15z"/>
	<path class="st5" d="M173.86,127.63c-0.1,0-0.18-0.02-0.23-0.05c-0.05-0.04-0.09-0.1-0.11-0.19c-0.02-0.09-0.04-0.23-0.04-0.41   c0-0.19,0.01-0.33,0.04-0.43c0.03-0.1,0.07-0.16,0.12-0.2c0.05-0.03,0.13-0.05,0.22-0.05h1.09v-4.95h1.44v6.29H173.86z"/>
	<path class="st5" d="M177.54,127.63v-6.29h1.44v6.29H177.54z"/>
	<path class="st5" d="M184.65,123.41c1.2,0,1.8,0.62,1.8,1.86v2.37h-4.59v-1.34H185v-0.85c0-0.26-0.06-0.44-0.17-0.54   c-0.11-0.1-0.3-0.16-0.57-0.16h-1.71v-1.34H184.65z"/>
	<path class="st5" d="M188.86,125.65c0,0.23,0.05,0.4,0.15,0.5c0.1,0.1,0.27,0.15,0.52,0.15h0.08c0.1,0,0.17,0.02,0.22,0.05   c0.05,0.03,0.09,0.1,0.12,0.2c0.03,0.1,0.04,0.24,0.04,0.43c0,0.18-0.01,0.32-0.03,0.41c-0.02,0.09-0.06,0.16-0.12,0.19   s-0.13,0.05-0.23,0.05h-0.04c-0.51,0-0.92-0.06-1.24-0.19c-0.31-0.13-0.54-0.33-0.69-0.62c-0.15-0.29-0.22-0.68-0.22-1.17v-4.31   h1.44V125.65z"/>
	<path class="st5" d="M190.25,123.45c0.39-0.08,0.72-0.12,0.99-0.12c0.98,0,1.67,0.28,2.08,0.83c0.4,0.55,0.6,1.26,0.6,2.13h0.63   c0.09,0,0.17,0.02,0.22,0.05c0.05,0.03,0.09,0.1,0.12,0.2c0.03,0.1,0.04,0.24,0.04,0.43c0,0.18-0.01,0.32-0.03,0.41   s-0.06,0.16-0.11,0.19s-0.13,0.05-0.23,0.05h-4.94c-0.1,0-0.18-0.02-0.23-0.05c-0.05-0.04-0.09-0.1-0.11-0.19   c-0.02-0.09-0.04-0.23-0.04-0.41c0-0.19,0.01-0.33,0.04-0.43c0.03-0.1,0.07-0.16,0.12-0.2c0.05-0.03,0.13-0.05,0.22-0.05h2.86   v-0.09c0-0.3-0.03-0.56-0.08-0.77c-0.05-0.21-0.18-0.39-0.39-0.55c-0.21-0.16-0.53-0.23-0.96-0.23c-0.2,0-0.39,0.01-0.57,0.04   L190.25,123.45z"/>
	<path class="st5" d="M194.55,127.63c-0.1,0-0.18-0.02-0.23-0.05c-0.05-0.04-0.09-0.1-0.11-0.19c-0.02-0.09-0.04-0.23-0.04-0.41   c0-0.19,0.01-0.33,0.04-0.43c0.03-0.1,0.07-0.16,0.12-0.2c0.05-0.03,0.13-0.05,0.22-0.05h1.51v-2.89h1.42v4.23H194.55z    M195.86,121.15c0.13,0,0.24,0.03,0.35,0.1s0.19,0.15,0.25,0.26c0.06,0.11,0.09,0.23,0.09,0.36c0,0.12-0.03,0.23-0.09,0.34   c-0.06,0.11-0.15,0.19-0.25,0.26c-0.11,0.07-0.22,0.1-0.35,0.1s-0.24-0.03-0.35-0.1c-0.11-0.07-0.2-0.15-0.26-0.26   s-0.1-0.22-0.1-0.34c0-0.13,0.03-0.25,0.1-0.36c0.06-0.11,0.15-0.2,0.26-0.26C195.62,121.18,195.73,121.15,195.86,121.15z    M197.53,121.15c0.12,0,0.23,0.03,0.34,0.1s0.19,0.15,0.26,0.26c0.06,0.11,0.09,0.23,0.09,0.36c0,0.12-0.03,0.23-0.1,0.34   s-0.15,0.19-0.25,0.26c-0.11,0.07-0.22,0.1-0.34,0.1c-0.13,0-0.25-0.03-0.37-0.1c-0.11-0.07-0.2-0.15-0.27-0.26s-0.1-0.22-0.1-0.34   c0-0.13,0.03-0.25,0.1-0.36c0.07-0.11,0.16-0.2,0.27-0.26C197.27,121.18,197.4,121.15,197.53,121.15z"/>
	<path class="st5" d="M203.84,125.86c0,0.36-0.07,0.67-0.21,0.93c-0.14,0.27-0.34,0.47-0.6,0.62s-0.58,0.22-0.94,0.22h-3.55v-1.34   h3.53c0.22,0,0.33-0.13,0.33-0.4v-4.56h1.43V125.86z M199.79,125.67v-3.56h1.44v3.56H199.79z"/>
	<path class="st5" d="M205.01,127.63v-6.29h1.44v6.29H205.01z"/>
</g>
<g>
	<path class="st6" d="M64.93,112.92c-0.68,0-1.27-0.12-1.77-0.36c-0.51-0.24-0.9-0.61-1.19-1.11s-0.43-1.12-0.43-1.87   c0-1.14,0.29-2.01,0.88-2.59c0.59-0.58,1.45-0.87,2.59-0.87c1.15,0,2.01,0.29,2.6,0.87c0.59,0.58,0.88,1.44,0.88,2.59   c0,0.36-0.04,0.68-0.12,0.96c-0.08,0.28-0.16,0.51-0.26,0.68c-0.09,0.17-0.17,0.29-0.23,0.35h0.93v1.35H64.93z M65.02,111.51   c0.57,0,1-0.16,1.3-0.48s0.45-0.83,0.45-1.51c0-0.69-0.15-1.19-0.45-1.51c-0.3-0.32-0.73-0.48-1.3-0.48s-1,0.16-1.3,0.48   c-0.3,0.32-0.44,0.83-0.44,1.51c0,0.69,0.15,1.19,0.44,1.51C64.01,111.34,64.45,111.51,65.02,111.51z"/>
	<path class="st6" d="M71.02,111.62l-0.44,1.3h-1.79l2.58-6.69h1.93l2.58,6.69h-1.83l-0.44-1.3H71.02z M73.14,110.25l-0.83-2.45   l-0.83,2.45H73.14z"/>
	<path class="st6" d="M75.86,107.62v-1.39h5.88v1.39h-2.12v5.3h-1.65v-5.3H75.86z"/>
	<path class="st6" d="M83.57,111.62l-0.44,1.3h-1.79l2.58-6.69h1.93l2.58,6.69h-1.83l-0.44-1.3H83.57z M85.68,110.25l-0.83-2.45   l-0.83,2.45H85.68z"/>
	<path class="st6" d="M90.66,110.58v2.34h-1.65v-6.69h3.64c0.76,0,1.33,0.18,1.71,0.53c0.38,0.36,0.58,0.9,0.58,1.64   c0,0.66-0.13,1.13-0.39,1.43s-0.56,0.51-0.9,0.63l1.65,2.46H93.3l-1.49-2.34H90.66z M92.35,109.19c0.29,0,0.5-0.06,0.64-0.18   s0.21-0.32,0.21-0.6c0-0.28-0.07-0.48-0.21-0.6c-0.14-0.12-0.35-0.18-0.64-0.18h-1.69v1.57H92.35z"/>
	<path class="st6" d="M101.33,112.92c-1.14,0-1.98-0.27-2.53-0.82c-0.55-0.55-0.82-1.39-0.82-2.53c0-1.14,0.27-1.98,0.82-2.53   c0.55-0.55,1.39-0.82,2.53-0.82h2.08v1.39h-1.74c-0.41,0-0.74,0.04-1,0.11c-0.26,0.08-0.46,0.2-0.61,0.38   c-0.15,0.18-0.25,0.43-0.3,0.75h3.54v1.39h-3.54c0.05,0.32,0.14,0.57,0.29,0.75c0.15,0.18,0.35,0.32,0.61,0.4   c0.26,0.08,0.59,0.12,1,0.12h1.84v1.39H101.33z"/>
	<path class="st6" d="M107.74,111.53c0.42,0,0.63-0.21,0.63-0.63s-0.21-0.63-0.63-0.63h-1.27c-0.67,0-1.17-0.17-1.51-0.5   c-0.33-0.34-0.5-0.84-0.5-1.52s0.17-1.18,0.49-1.51c0.33-0.33,0.83-0.5,1.51-0.5h3.36v1.39h-3c-0.2,0-0.35,0.05-0.46,0.16   s-0.16,0.26-0.16,0.46c0,0.2,0.05,0.35,0.16,0.46s0.26,0.16,0.46,0.16h1.25c0.67,0,1.17,0.17,1.52,0.51   c0.35,0.34,0.52,0.85,0.52,1.51c0,0.67-0.17,1.17-0.52,1.51c-0.35,0.34-0.85,0.51-1.52,0.51h-3.42v-1.39H107.74z"/>
	<path class="st6" d="M114.72,106.23c0.74,0,1.3,0.19,1.69,0.57c0.39,0.38,0.59,0.94,0.59,1.67s-0.2,1.29-0.59,1.67   c-0.39,0.38-0.95,0.57-1.69,0.57h-1.89v2.22h-1.65v-6.69H114.72z M114.42,109.31c0.56,0,0.85-0.28,0.85-0.85s-0.28-0.85-0.85-0.85   h-1.59v1.69H114.42z"/>
	<path class="st6" d="M124.69,109.57c0,1.14-0.29,2.01-0.88,2.59c-0.59,0.58-1.45,0.87-2.6,0.87s-2.01-0.29-2.59-0.87   c-0.59-0.58-0.88-1.44-0.88-2.59s0.29-2.01,0.88-2.59c0.59-0.58,1.45-0.87,2.59-0.87c1.15,0,2.01,0.29,2.6,0.87   C124.39,107.57,124.69,108.43,124.69,109.57z M121.21,111.63c0.58,0,1.01-0.16,1.31-0.49c0.29-0.32,0.44-0.85,0.44-1.57   s-0.15-1.25-0.44-1.57c-0.29-0.33-0.73-0.49-1.31-0.49c-0.57,0-1.01,0.16-1.3,0.49c-0.29,0.32-0.44,0.85-0.44,1.57   s0.15,1.25,0.44,1.57C120.2,111.47,120.63,111.63,121.21,111.63z"/>
	<path class="st6" d="M127.37,110.58v2.34h-1.65v-6.69h3.64c0.76,0,1.33,0.18,1.71,0.53c0.38,0.36,0.58,0.9,0.58,1.64   c0,0.66-0.13,1.13-0.39,1.43s-0.56,0.51-0.9,0.63l1.65,2.46h-1.99l-1.49-2.34H127.37z M129.07,109.19c0.29,0,0.5-0.06,0.64-0.18   s0.21-0.32,0.21-0.6c0-0.28-0.07-0.48-0.21-0.6c-0.14-0.12-0.35-0.18-0.64-0.18h-1.69v1.57H129.07z"/>
	<path class="st6" d="M132.22,107.62v-1.39h5.88v1.39h-2.12v5.3h-1.65v-5.3H132.22z"/>
	<path class="st6" d="M141.84,111.53c0.42,0,0.63-0.21,0.63-0.63s-0.21-0.63-0.63-0.63h-1.27c-0.67,0-1.17-0.17-1.51-0.5   c-0.33-0.34-0.5-0.84-0.5-1.52s0.17-1.18,0.49-1.51c0.33-0.33,0.83-0.5,1.51-0.5h3.36v1.39h-3c-0.2,0-0.35,0.05-0.46,0.16   s-0.16,0.26-0.16,0.46c0,0.2,0.05,0.35,0.16,0.46s0.26,0.16,0.46,0.16h1.25c0.67,0,1.17,0.17,1.52,0.51   c0.35,0.34,0.52,0.85,0.52,1.51c0,0.67-0.17,1.17-0.52,1.51c-0.35,0.34-0.85,0.51-1.52,0.51h-3.42v-1.39H141.84z"/>
	<path class="st6" d="M147.44,112.92v-4.09c0-1.74,0.87-2.6,2.6-2.6h2.22v1.39h-1.75c-0.35,0-0.63,0.04-0.84,0.13   c-0.2,0.09-0.35,0.24-0.44,0.44c-0.09,0.2-0.14,0.48-0.14,0.83v0.12h3.07v1.39h-3.07v2.38H147.44z"/>
	<path class="st6" d="M156.35,112.92c-1.14,0-1.98-0.27-2.53-0.82c-0.55-0.55-0.82-1.39-0.82-2.53c0-1.14,0.27-1.98,0.82-2.53   c0.55-0.55,1.39-0.82,2.53-0.82h2.08v1.39h-1.74c-0.41,0-0.74,0.04-1,0.11c-0.26,0.08-0.46,0.2-0.61,0.38   c-0.15,0.18-0.25,0.43-0.3,0.75h3.54v1.39h-3.54c0.05,0.32,0.14,0.57,0.29,0.75c0.15,0.18,0.35,0.32,0.61,0.4   c0.26,0.08,0.59,0.12,1,0.12h1.83v1.39H156.35z"/>
	<path class="st6" d="M162.75,106.23c0.77,0,1.4,0.12,1.89,0.36c0.49,0.24,0.86,0.61,1.1,1.1s0.36,1.12,0.36,1.89   s-0.12,1.4-0.36,1.89c-0.24,0.49-0.61,0.86-1.1,1.1c-0.49,0.24-1.12,0.36-1.89,0.36h-3v-6.69H162.75z M162.41,111.53   c0.5,0,0.89-0.06,1.17-0.18c0.28-0.12,0.48-0.32,0.6-0.6c0.12-0.28,0.18-0.67,0.18-1.17c0-0.5-0.06-0.89-0.18-1.17   s-0.32-0.48-0.6-0.6c-0.28-0.12-0.67-0.18-1.17-0.18h-1.01v3.91H162.41z"/>
	<path class="st6" d="M170.17,112.92c-1.14,0-1.98-0.27-2.53-0.82c-0.55-0.55-0.82-1.39-0.82-2.53c0-1.14,0.27-1.98,0.82-2.53   c0.55-0.55,1.39-0.82,2.53-0.82h2.08v1.39h-1.74c-0.41,0-0.74,0.04-1,0.11c-0.26,0.08-0.46,0.2-0.61,0.38   c-0.15,0.18-0.25,0.43-0.3,0.75h3.54v1.39h-3.54c0.05,0.32,0.14,0.57,0.29,0.75c0.15,0.18,0.35,0.32,0.61,0.4   c0.26,0.08,0.59,0.12,1,0.12h1.83v1.39H170.17z"/>
	<path class="st6" d="M175.21,110.58v2.34h-1.65v-6.69h3.64c0.76,0,1.33,0.18,1.71,0.53c0.38,0.36,0.58,0.9,0.58,1.64   c0,0.66-0.13,1.13-0.39,1.43s-0.56,0.51-0.9,0.63l1.65,2.46h-1.99l-1.49-2.34H175.21z M176.91,109.19c0.29,0,0.5-0.06,0.64-0.18   s0.21-0.32,0.21-0.6c0-0.28-0.07-0.48-0.21-0.6c-0.14-0.12-0.35-0.18-0.64-0.18h-1.69v1.57H176.91z"/>
	<path class="st6" d="M182.15,111.62l-0.44,1.3h-1.79l2.58-6.69h1.93l2.58,6.69h-1.83l-0.44-1.3H182.15z M184.27,110.25l-0.83-2.45   l-0.83,2.45H184.27z"/>
	<path class="st6" d="M186.99,107.62v-1.39h5.89v1.39h-2.12v5.3h-1.65v-5.3H186.99z"/>
	<path class="st6" d="M195.25,106.23v6.69h-1.65v-6.69H195.25z"/>
	<path class="st6" d="M203.24,109.57c0,1.14-0.29,2.01-0.88,2.59c-0.59,0.58-1.45,0.87-2.6,0.87s-2.01-0.29-2.59-0.87   c-0.59-0.58-0.88-1.44-0.88-2.59s0.29-2.01,0.88-2.59c0.59-0.58,1.45-0.87,2.59-0.87c1.14,0,2.01,0.29,2.6,0.87   C202.95,107.57,203.24,108.43,203.24,109.57z M199.76,111.63c0.58,0,1.01-0.16,1.31-0.49c0.29-0.32,0.44-0.85,0.44-1.57   s-0.15-1.25-0.44-1.57c-0.29-0.33-0.73-0.49-1.31-0.49c-0.57,0-1.01,0.16-1.3,0.49c-0.29,0.32-0.44,0.85-0.44,1.57   s0.15,1.25,0.44,1.57C198.75,111.47,199.19,111.63,199.76,111.63z"/>
	<path class="st6" d="M205.85,112.92h-1.58v-6.69h2.14l2.36,4.54v-4.54h1.57v6.69h-2.08l-2.42-4.63V112.92z"/>
</g>
</svg>